<?xml version="1.0" encoding="UTF-8" standalone="no"?>
<!DOCTYPE svg  PUBLIC '-//W3C//DTD SVG 1.1//EN'  'http://www.w3.org/Graphics/SVG/1.1/DTD/svg11.dtd'>
<svg xmlns="http://www.w3.org/2000/svg">
<defs>
<font id="FrutigerNeueW01-Thin" horiz-adv-x="570">
<font-face underline-position="-50" font-weight="400" descent="-200" panose-1="2 11 3 3 4 3 4 2 2 3" units-per-em="1000" unicode-range="U+000D-2122" bbox="-145 -230 1284 937" x-height="507" underline-thickness="50" font-family="FrutigerNeueW01" ascent="800" cap-height="698"/>
<missing-glyph horiz-adv-x="0"/>
<glyph glyph-name=".notdef" horiz-adv-x="0"/>
<glyph glyph-name="glyph1" horiz-adv-x="0"/>
<glyph glyph-name="uni000D" horiz-adv-x="0" unicode=""/>
<glyph glyph-name="space" horiz-adv-x="226" unicode=" "/>
<glyph glyph-name="exclam" horiz-adv-x="280" unicode="!" d="M172 64v-64h-63v64h63zM168 698l-10 -538h-34l-7 538h51z"/>
<glyph glyph-name="quotedbl" horiz-adv-x="383" unicode='&quot;' d="M247 414l-7 284h49l-6 -284h-36zM100 414l-6 284h49l-7 -284h-36z"/>
<glyph glyph-name="numbersign" d="M371 434h-139l-32 -173h139zM105 0l40 219h-114v42h121l32 173h-112v43h120l41 221h47l-41 -221h140l40 221h48l-42 -221h114v-43h-121l-32 -173h113v-42h-121l-40 -219h-47l41 219h-141l-40 -219h-46z" unicode="#"/>
<glyph glyph-name="dollar" d="M297 37q63 6 99.5 44t36.5 91q0 23 -5.5 43.5t-20.5 39.5t-41.5 37.5t-68.5 38.5v-294zM263 658q-57 -6 -89 -38.5t-32 -83.5q0 -43 28.5 -77.5t92.5 -63.5v263zM444 628q-33 16 -69.5 23t-76.5 7v-277q55 -25 91 -49t56 -49.5t28 -53t8 -59.5q0 -34 -13.5 -63.5 t-37.5 -52.5t-58 -38t-75 -19v-90h-35v90q-36 0 -79 7t-85 21l5 49q43 -22 81.5 -30t77.5 -8v308q-51 24 -83.5 46.5t-51 45.5t-25.5 47t-7 51q0 33 12 60.5t34 49t53 35t69 17.5v93h35v-91q42 0 78 -5.5t74 -19.5z" unicode="$"/>
<glyph glyph-name="percent" horiz-adv-x="974" unicode="%" d="M726 328q-54 0 -84 -40.5t-30 -111.5q0 -69 30 -109t83 -40t84 41t31 113t-29.5 109.5t-84.5 37.5zM730 366q72 0 113.5 -50t41.5 -135q0 -88 -43 -139.5t-117 -51.5q-72 0 -115.5 50t-43.5 135q0 88 44 139.5t120 51.5zM306 -22h-41l397 757h42zM247 670q-53 0 -83 -40 t-30 -112q0 -69 30 -108.5t83 -39.5t84 41t31 113t-29 109t-86 37zM252 709q72 0 114 -50t42 -136q0 -88 -42.5 -139t-117.5 -51q-74 0 -116.5 49.5t-42.5 135.5q0 88 43.5 139.5t119.5 51.5z"/>
<glyph glyph-name="ampersand" horiz-adv-x="700" unicode="&amp;" d="M267 352q-78 -30 -112.5 -70t-34.5 -97q0 -35 12.5 -63.5t35.5 -49t55 -31.5t71 -11q56 0 102.5 21.5t84.5 69.5zM285 397q81 35 116 72t35 89q0 48 -30 79t-84 31q-28 0 -50.5 -9t-39 -24.5t-25.5 -36.5t-9 -44q0 -21 4.5 -39.5t15 -37t27 -38t40.5 -42.5zM509 91 q-86 -101 -221 -101q-50 0 -90 13.5t-68.5 39t-43.5 61t-15 80.5q0 34 10 62.5t30.5 52t53 43.5t77.5 39q-23 23 -40 43.5t-28.5 40.5t-17 41t-5.5 45q0 34 13 63t36.5 50t56 32.5t71.5 11.5q36 0 64.5 -11t49 -30.5t31 -47t10.5 -59.5q0 -31 -9.5 -57t-30.5 -49t-54 -43.5 t-79 -41.5l198 -214q31 48 49 106.5t19 118.5h47q0 -27 -6.5 -60t-17.5 -67t-27 -66.5t-35 -59.5l120 -127h-63z"/>
<glyph glyph-name="quotesingle" horiz-adv-x="237" unicode="&apos;" d="M100 414l-6 284h49l-7 -284h-36z"/>
<glyph glyph-name="parenleft" horiz-adv-x="310" unicode="(" d="M126 308q0 -112 38 -225.5t100 -222.5h-40q-30 49 -56 102.5t-46 110t-31.5 116t-11.5 120.5t11.5 121t31.5 117t46 110.5t56 102.5h40q-62 -109 -100 -225t-38 -227z"/>
<glyph glyph-name="parenright" horiz-adv-x="310" unicode=")" d="M198 310q0 112 -38 226.5t-100 223.5h40q30 -49 56 -103t46 -111t31.5 -116.5t11.5 -120.5q0 -62 -11.5 -121t-31.5 -115.5t-46 -110t-56 -102.5h-40q62 109 100 224t38 226z"/>
<glyph glyph-name="asterisk" horiz-adv-x="470" unicode="*" d="M253 590l148 53l13 -39l-149 -46l99 -131l-34 -24l-94 135l-92 -135l-34 24l97 131l-150 47l13 38l148 -53l-4 161h43z"/>
<glyph glyph-name="plus" d="M266 236h-231v40h231v234h42v-234h227v-40h-227v-236h-42v236z" unicode="+"/>
<glyph glyph-name="comma" horiz-adv-x="230" unicode="," d="M85 -135h-35l60 221h49z"/>
<glyph glyph-name="hyphen" horiz-adv-x="325" unicode="-" d="M280 250h-235v37h235v-37z"/>
<glyph glyph-name="period" horiz-adv-x="230" unicode="." d="M146 0h-63v66h63v-66z"/>
<glyph glyph-name="slash" horiz-adv-x="442" unicode="/" d="M113 0h-42l256 698h41z"/>
<glyph glyph-name="zero" d="M283 664q-83 0 -128 -79t-45 -235q0 -159 44.5 -238t128.5 -79t130.5 79.5t46.5 235.5q0 158 -46 237t-131 79zM292 708q107 0 163 -95.5t56 -269.5q0 -83 -15 -148.5t-43.5 -111t-71 -69.5t-96.5 -24q-110 0 -168.5 94.5t-58.5 264.5q0 175 58.5 267t175.5 92z" unicode="0"/>
<glyph glyph-name="one" d="M340 0h-48v460q0 22 0.5 49t1 53.5t1 49.5t1.5 36h-2q-18 -17 -44 -39.5t-44 -36.5l-44 -36l-26 32l161 130h43v-698z" unicode="1"/>
<glyph glyph-name="two" d="M99 666q41 20 82.5 31t87.5 11q40 0 76 -10.5t64 -33t44.5 -56.5t16.5 -82q0 -85 -52.5 -170.5t-150.5 -182.5q-44 -44 -80 -76.5t-69 -55.5v-2q23 1 50 1.5t54.5 1t53.5 1t48 0.5h159v-43h-416v45q90 76 156 141.5t109.5 124.5t64.5 112t21 103q0 36 -12 62.5t-32.5 44 t-47.5 25.5t-57 8q-38 0 -76.5 -10t-80.5 -34z" unicode="2"/>
<glyph glyph-name="three" d="M196 344h-22.5t-21.5 -1v42q8 -1 22.5 -1h22.5q108 0 166 34t58 111q0 37 -14.5 63t-38.5 42.5t-55 24.5t-64 8q-39 0 -76 -8t-82 -28l-6 46q44 17 84.5 24t85.5 7q46 0 85.5 -11t68 -33.5t44.5 -55.5t16 -76q0 -40 -14 -70t-38.5 -50t-57.5 -31.5t-72 -14.5v-2 q39 -1 73.5 -11.5t59.5 -31t39.5 -52t14.5 -74.5q0 -49 -19.5 -87t-54 -64.5t-82 -40t-102.5 -13.5q-37 0 -78 6.5t-84 20.5l8 46q42 -18 82 -25t75 -7q40 0 77.5 9t66 29.5t46 52t17.5 76.5q0 77 -58 111.5t-172 34.5z" unicode="3"/>
<glyph glyph-name="four" d="M382 446q0 48 1 106.5t4 117.5h-2q-8 -14 -20 -34t-26.5 -42.5t-29.5 -45.5t-28 -42l-198 -291h299v231zM429 215h101v-43h-101v-172h-47v172h-346v48l328 478h65v-483z" unicode="4"/>
<glyph glyph-name="five" d="M462 698v-42h-305l-4 -250q23 9 53.5 14.5t61.5 5.5q106 0 165 -56.5t59 -153.5q0 -51 -17 -92.5t-49 -71t-77 -46t-100 -16.5q-75 0 -150 27l2 49q30 -16 69 -25.5t75 -9.5q94 0 146 50.5t52 134.5q0 81 -48.5 125t-142.5 44q-37 0 -76 -10t-68 -22l4 345h350z" unicode="5"/>
<glyph glyph-name="six" d="M302 393q-36 0 -67.5 -13t-55.5 -35t-37.5 -51.5t-13.5 -63.5q0 -39 11.5 -75t33.5 -63.5t52.5 -43.5t69.5 -16q38 0 68.5 13.5t52 38t33 58t11.5 73.5q0 85 -40.5 131.5t-117.5 46.5zM477 642q-26 13 -52 18.5t-55 5.5q-60 0 -106.5 -26.5t-78.5 -73.5t-48.5 -111 t-17.5 -138h2q23 55 73 86t113 31q46 0 83.5 -15.5t64 -44t40.5 -68t14 -87.5q0 -49 -15.5 -91t-44 -72.5t-67.5 -48t-86 -17.5q-107 0 -166 80t-59 236q0 85 20 158.5t58 127.5t94.5 85t128.5 31q28 0 54 -4.5t55 -15.5z" unicode="6"/>
<glyph glyph-name="seven" d="M477 698v-45l-272 -653h-52l276 656h-359v42h407z" unicode="7"/>
<glyph glyph-name="eight" d="M275 342q-84 -26 -124 -65t-40 -96q0 -68 47 -108.5t128 -40.5q78 0 125.5 38t47.5 106q0 55 -41.5 96t-142.5 70zM289 380q25 10 51 24.5t47 34.5t34.5 46t13.5 59q0 59 -42.5 91t-110.5 32q-66 0 -107 -33t-41 -96q0 -34 14 -60t36.5 -45t50 -32t54.5 -21zM232 363 q-68 24 -108.5 67t-40.5 108q0 37 15 68.5t42.5 54t65.5 35t84 12.5q44 0 80 -12t61.5 -33.5t39.5 -52t14 -66.5q0 -60 -40 -105.5t-114 -74.5v-2q39 -11 72 -26.5t56.5 -37t37 -51.5t13.5 -69q0 -43 -16 -77.5t-45.5 -59t-71.5 -38t-93 -13.5t-92.5 14t-71 39t-45.5 60 t-16 77q0 70 48 114t125 67v2z" unicode="8"/>
<glyph glyph-name="nine" d="M265 310q36 0 67.5 12t55.5 33t37.5 50t13.5 63q0 39 -11 75t-32 63.5t-51.5 43.5t-69.5 16q-77 0 -122 -49t-45 -129q0 -85 40 -131.5t117 -46.5zM88 56q26 -13 53 -18.5t56 -5.5q60 0 106.5 26.5t78.5 73.5t48.5 111t17.5 138h-2q-23 -55 -73 -83.5t-113 -28.5 q-47 0 -84 15.5t-63 44t-40 68t-14 87.5q0 49 16 90t44.5 71t68 46.5t86.5 16.5q109 0 165.5 -80t56.5 -236q0 -86 -20 -159.5t-58 -127.5t-94.5 -84.5t-128.5 -30.5q-28 0 -55 4.5t-56 15.5z" unicode="9"/>
<glyph glyph-name="colon" horiz-adv-x="250" unicode=":" d="M156 441h-63v66h63v-66zM156 0h-63v66h63v-66z"/>
<glyph glyph-name="semicolon" horiz-adv-x="250" unicode=";" d="M156 441h-63v66h63v-66zM85 -135h-35l60 221h49z"/>
<glyph glyph-name="less" d="M35 246v31l500 182v-44l-279 -97q-17 -6 -39.5 -13.5t-46 -15t-45.5 -15t-37 -11.5v-2q15 -5 37 -12t45.5 -14.5t46 -15t39.5 -13.5l279 -98v-43z" unicode="&lt;"/>
<glyph glyph-name="equal" d="M35 333v40h500v-40h-500zM35 142v40h500v-40h-500z" unicode="="/>
<glyph glyph-name="greater" d="M535 278v-31l-500 -182v44l279 97q16 6 39 13.5t46.5 15t45.5 14.5t37 12v2q-15 4 -37 11.5t-45.5 15t-46.5 15t-39 13.5l-279 98v43z" unicode="&gt;"/>
<glyph glyph-name="question" horiz-adv-x="466" unicode="?" d="M244 64v-64h-63v64h63zM81 682q27 11 61.5 16.5t65.5 5.5q44 0 81 -9.5t64 -29.5t42.5 -50t15.5 -71q0 -25 -6 -48t-19.5 -48t-36 -54.5t-55.5 -66.5q-34 -38 -47 -68.5t-13 -68.5v-30h-44v22q0 25 3.5 46t11.5 40.5t21.5 39.5t33.5 44q29 34 49 60t32 47.5t17 41t5 39.5 q0 32 -12 55t-33.5 38t-51 22t-63.5 7q-26 0 -56.5 -5.5t-62.5 -19.5z"/>
<glyph glyph-name="at" horiz-adv-x="1000" unicode="@" d="M526 481q-32 0 -62 -19.5t-54 -51.5t-38.5 -74t-14.5 -87q0 -54 26.5 -87t75.5 -33q33 0 63.5 17t53.5 55q11 18 20.5 39.5t17 45t11.5 46.5t4 43q0 50 -28 78t-75 28zM766 -47q-53 -28 -114.5 -43.5t-133.5 -15.5q-92 0 -167.5 26.5t-130.5 76t-85 121t-30 160.5 q0 90 33 167t91.5 133t138 87.5t173.5 31.5q79 0 144.5 -24.5t112.5 -68t72.5 -102.5t25.5 -129q0 -57 -15.5 -107.5t-43 -89t-65 -61t-81.5 -22.5q-45 0 -65.5 21.5t-20.5 51.5q0 16 6 39h-2q-24 -54 -65 -83t-94 -29q-66 0 -101.5 42t-35.5 113q0 51 16.5 99.5t45.5 86 t68.5 60.5t86.5 23q52 0 83 -26t43 -74l24 85h40l-57 -188q-12 -39 -19 -71t-7 -58q0 -29 16.5 -42.5t44.5 -13.5q36 0 65 21t49.5 54.5t32 77t11.5 88.5q0 63 -22.5 116.5t-63.5 92t-99.5 60.5t-131.5 22q-86 0 -157.5 -29.5t-124 -81t-81.5 -121t-29 -150.5t27 -145.5 t75.5 -109.5t117.5 -69.5t153 -24.5q60 0 118.5 14t114.5 43z"/>
<glyph glyph-name="A" horiz-adv-x="660" unicode="A" d="M303 698h53l289 -698h-53l-81 199h-365l-80 -199h-51zM386 508q-5 13 -12.5 32t-15.5 40t-15.5 41t-12.5 36h-3q-5 -16 -12.5 -36l-15 -40t-15 -39t-13.5 -33l-108 -269h331z"/>
<glyph glyph-name="B" horiz-adv-x="553" unicode="B" d="M147 43h85q102 0 155.5 36t53.5 117q0 75 -46.5 110.5t-144.5 35.5h-103v-299zM147 384h103q83 0 129 35.5t46 100.5q0 136 -189 136h-89v-272zM236 698q48 0 91.5 -9t76.5 -30t52.5 -55t19.5 -84q0 -27 -9.5 -51.5t-27.5 -45t-44 -36t-59 -22.5v-2q71 -8 113.5 -52 t42.5 -112q0 -56 -19.5 -94t-54 -61.5t-80.5 -33.5t-99 -10h-140v698h137z"/>
<glyph glyph-name="C" horiz-adv-x="613" unicode="C" d="M562 639q-27 11 -64 16.5t-75 5.5q-69 0 -126 -23.5t-98 -65.5t-63.5 -99.5t-22.5 -126.5t23 -126t65 -97.5t102 -62.5t135 -22q30 0 61.5 4t60.5 15l4 -48q-29 -8 -62 -11.5t-68 -3.5q-84 0 -153 25.5t-118 72t-75.5 111.5t-26.5 144t26.5 144.5t74.5 113t116 73.5 t151 26q38 0 74 -4.5t65 -14.5z"/>
<glyph glyph-name="D" horiz-adv-x="691" unicode="D" d="M147 43h88q162 0 253.5 75.5t91.5 227.5q0 83 -25.5 142t-71 96.5t-109 54.5t-139.5 17h-88v-613zM99 698h136q87 0 160 -20.5t125 -63.5t81 -108.5t29 -155.5q0 -96 -32 -162.5t-86.5 -108.5t-126 -60.5t-150.5 -18.5h-136v698z"/>
<glyph glyph-name="E" horiz-adv-x="501" unicode="E" d="M417 383v-42h-270v-298h295v-43h-343v698h333v-42h-285v-273h270z"/>
<glyph glyph-name="F" horiz-adv-x="470" unicode="F" d="M414 381v-42h-267v-339h-48v698h324v-42h-276v-275h267z"/>
<glyph glyph-name="G" horiz-adv-x="700" unicode="G" d="M602 627q-45 20 -85 27t-88 7q-68 0 -126 -22.5t-100 -63.5t-66 -98t-24 -126q0 -70 23 -128t64 -99t99 -64t128 -23q42 0 80 6t68 19v264h-179v42h227v-339q-45 -17 -96 -26t-100 -9q-81 0 -148.5 26t-115.5 73t-75 112.5t-27 144.5q0 77 28 142t77.5 112t118 73.5 t150.5 26.5q46 0 90 -7.5t83 -24.5z"/>
<glyph glyph-name="H" horiz-adv-x="679" unicode="H" d="M580 0h-48v341h-385v-341h-48v698h48v-315h385v315h48v-698z"/>
<glyph glyph-name="I" horiz-adv-x="246" unicode="I" d="M147 0h-48v698h48v-698z"/>
<glyph glyph-name="J" horiz-adv-x="328" unicode="J" d="M27 51q20 -8 33 -10.5t29 -2.5q33 0 52 11t29.5 31t13.5 48.5t3 63.5v506h48v-511q0 -42 -6 -77.5t-22.5 -61t-44.5 -39.5t-71 -14q-18 0 -32.5 2.5t-33.5 8.5z"/>
<glyph glyph-name="K" horiz-adv-x="582" unicode="K" d="M147 0h-48v698h48v-323h2q18 19 39.5 41t41 42.5t36.5 37.5l26 26l177 176h65l-335 -328l366 -370h-69l-229 234q-19 19 -49.5 51.5t-68.5 73.5h-2v-359z"/>
<glyph glyph-name="L" horiz-adv-x="457" unicode="L" d="M99 0v698h48v-655h291v-43h-339z"/>
<glyph glyph-name="M" horiz-adv-x="889" unicode="M" d="M388 193q5 -12 11.5 -29t14 -36.5t14 -39t11.5 -35.5h2q5 16 12.5 36t15 39.5t14.5 37t12 28.5l217 504h78v-698h-48v495v32v43t0.5 46.5t1.5 43.5h-2q-12 -35 -28.5 -74t-26.5 -62l-230 -524h-38l-216 513l-12.5 30t-15.5 38.5t-15.5 41t-12.5 37.5h-2q1 -20 1.5 -43.5 t0.5 -46.5v-43v-32v-495h-48v698h80z"/>
<glyph glyph-name="N" horiz-adv-x="695" unicode="N" d="M548 698h48v-698h-62l-275 452q-12 19 -28 46.5t-32.5 55.5t-31 54t-23.5 44h-2q1 -16 2 -40.5t1.5 -51.5t1 -54.5t0.5 -49.5v-456h-48v698h65l271 -442q11 -18 28 -46.5t34 -58.5t32 -57.5t23 -43.5h2q-1 18 -2 47.5t-2 62t-1.5 64t-0.5 54.5v420z"/>
<glyph glyph-name="O" horiz-adv-x="737" unicode="O" d="M366 664q-56 0 -102 -22.5t-79 -63.5t-51 -99.5t-18 -130.5t18.5 -130.5t52 -99.5t81 -63t106.5 -22q56 0 101.5 22t78 63t50 98.5t17.5 129.5q0 74 -17.5 133t-50.5 100t-80 63t-107 22zM374 708q69 0 124 -26.5t94 -74.5t60 -115.5t21 -148.5q0 -80 -21.5 -145 t-61 -111.5t-94.5 -71.5t-122 -25q-71 0 -128 25t-97.5 71t-62.5 111t-22 145q0 84 22 151.5t62.5 115t97.5 73.5t128 26z"/>
<glyph glyph-name="P" horiz-adv-x="522" unicode="P" d="M147 354h91q92 0 142 37.5t50 112.5q0 152 -195 152h-88v-302zM99 698h144q114 0 175.5 -51.5t61.5 -142.5q0 -94 -65.5 -144t-180.5 -50h-87v-310h-48v698z"/>
<glyph glyph-name="Q" horiz-adv-x="737" unicode="Q" d="M366 664q-56 0 -102 -22.5t-79 -63.5t-51 -99.5t-18 -130.5t18.5 -130.5t52 -99.5t81 -63t106.5 -22q56 0 101.5 22t78 63t50 98.5t17.5 129.5q0 74 -17.5 133t-50.5 100t-80 63t-107 22zM374 708q69 0 124 -26.5t94 -74.5t60 -115.5t21 -148.5q0 -62 -13 -115 t-37.5 -95.5t-59.5 -73.5t-78 -49l157 -145h-71l-139 131q-29 -6 -58 -6q-71 0 -128 25t-97.5 71t-62.5 111t-22 145q0 84 22 151.5t62.5 115t97.5 73.5t128 26z"/>
<glyph glyph-name="R" horiz-adv-x="557" unicode="R" d="M147 374h101q40 0 72.5 11t56 30.5t36 47t12.5 60.5q0 65 -44.5 99t-132.5 34h-101v-282zM255 698q103 0 162 -44.5t59 -127.5q0 -64 -38.5 -109.5t-107.5 -62.5v-2q29 -10 49 -31.5t35 -55.5l119 -265h-54l-106 242q-22 50 -47.5 71t-69.5 21h-109v-334h-48v698h156z "/>
<glyph glyph-name="S" horiz-adv-x="514" unicode="S" d="M414 637q-59 28 -134 28q-33 0 -62 -8.5t-50.5 -25.5t-34 -41.5t-12.5 -55.5q0 -27 9 -47.5t28.5 -39t50 -36.5t72.5 -39q44 -22 76 -43t52.5 -43.5t30.5 -49t10 -58.5q0 -43 -16 -78t-45.5 -59.5t-70 -37.5t-88.5 -13q-42 0 -84 7.5t-75 20.5l5 52q39 -20 76.5 -28.5 t78.5 -8.5q38 0 69.5 10t53.5 28.5t34 44t12 57.5q0 25 -7.5 45.5t-25 40t-47.5 38.5t-75 41q-42 20 -74.5 39.5t-54.5 42t-33.5 50.5t-11.5 64q0 37 15 69t42 55.5t65.5 36.5t86.5 13q38 0 73.5 -6.5t65.5 -17.5z"/>
<glyph glyph-name="T" horiz-adv-x="496" unicode="T" d="M481 698v-43l-209 2v-657h-48v657l-210 -2v43h467z"/>
<glyph glyph-name="U" horiz-adv-x="668" unicode="U" d="M582 698v-437q0 -126 -61.5 -198.5t-190.5 -72.5q-124 0 -184 71.5t-60 199.5v437h48v-421q0 -54 9 -98.5t32 -77t61 -50.5t97 -18t98 18t62 50.5t32 78t9 100.5v418h48z"/>
<glyph glyph-name="V" horiz-adv-x="608" unicode="V" d="M263 163q4 -12 9.5 -27.5t11 -32t10.5 -32.5t9 -29h2q4 13 9 29t11 32.5t11.5 32t10.5 27.5l201 535h50l-268 -698h-53l-266 698h53z"/>
<glyph glyph-name="W" horiz-adv-x="979" unicode="W" d="M517 544q-8 24 -17 58t-14 58h-2q-2 -12 -5.5 -27t-7.5 -30.5l-8 -31t-8 -27.5l-168 -544h-59l-208 698h53l160 -551q5 -17 12.5 -46.5t13.5 -55.5h2q5 26 12 53t14 49l166 551h64l174 -551q5 -17 13.5 -46.5t15.5 -55.5h2q5 26 12 53t13 49l162 551h50l-210 -698h-61z "/>
<glyph glyph-name="X" horiz-adv-x="608" unicode="X" d="M305 396q7 11 19 29l24 36t23 34t16 23l127 180h59l-239 -334l259 -364h-60l-142 204q-21 31 -45.5 67t-41.5 64q-9 -14 -20 -31t-23 -34.5t-23.5 -35t-21.5 -31.5l-141 -203h-61l259 364l-237 334h59l126 -180q6 -8 17 -24t23.5 -34t24.5 -35.5t19 -28.5z"/>
<glyph glyph-name="Y" horiz-adv-x="594" unicode="Y" d="M71 698l115 -183q14 -22 30 -47.5t31.5 -50t28.5 -46t21 -34.5h2q8 13 21 34.5t28 46t31.5 50t30.5 47.5l116 183h58l-264 -401v-297h-48v295l-262 403h61z"/>
<glyph glyph-name="Z" horiz-adv-x="514" unicode="Z" d="M469 654q-173 -278 -266.5 -427.5t-118.5 -183.5h395v-43h-445v42q74 120 140 225.5t117 187t84.5 134.5t43.5 67h-376v42h426v-44z"/>
<glyph glyph-name="bracketleft" horiz-adv-x="310" unicode="[" d="M241 723h-107v-826h107v-37h-155v900h155v-37z"/>
<glyph glyph-name="backslash" horiz-adv-x="442" unicode="\" d="M71 698h41l256 -698h-42z"/>
<glyph glyph-name="bracketright" horiz-adv-x="310" unicode="]" d="M86 -103h107v826h-107v37h155v-900h-155v37z"/>
<glyph glyph-name="asciicircum" d="M269 697h31l158 -432h-43l-74 211q-6 16 -13.5 39t-15 46.5t-15 45.5t-11.5 37h-2q-5 -15 -12 -37t-14.5 -45.5t-15 -46.5t-13.5 -39l-74 -211h-42z" unicode="^"/>
<glyph glyph-name="underscore" horiz-adv-x="500" unicode="_" d="M500 -85v-36h-500v36h500z"/>
<glyph glyph-name="grave" horiz-adv-x="500" unicode="`" d="M142 756h54l101 -177h-43z"/>
<glyph glyph-name="a" horiz-adv-x="520" unicode="a" d="M392 261q-14 2 -29.5 3t-34.5 1q-108 0 -168.5 -30t-60.5 -97q0 -48 35 -77.5t90 -29.5q49 0 90.5 24.5t61.5 70.5q10 23 13 58t3 77zM391 97q-8 -21 -24.5 -40t-39 -33t-50 -22.5t-58.5 -8.5q-37 0 -68 10.5t-53 29.5t-34.5 45.5t-12.5 59.5q0 82 70 122.5t202 40.5 q17 0 36 -0.5t33 -2.5v22q0 33 -6.5 61.5t-22.5 50.5t-42.5 34.5t-66.5 12.5q-35 0 -73.5 -11.5t-75.5 -37.5l-3 45q35 21 77.5 31.5t79.5 10.5q94 0 135 -52.5t41 -142.5q0 -24 -0.5 -50t-1.5 -49.5t-1.5 -43t-0.5 -32.5q0 -42 2 -81t4 -66h-44q-1 6 -1.5 18.5t-0.5 23.5 q0 10 0.5 27t1.5 28h-2z"/>
<glyph glyph-name="b" horiz-adv-x="584" unicode="b" d="M310 30q79 0 124.5 59.5t45.5 168.5q0 45 -11 85t-32 70t-52.5 47.5t-71.5 17.5q-36 0 -68 -15.5t-56 -44.5t-38 -69.5t-14 -91.5q0 -50 12 -91.5t34.5 -71.5t54.5 -47t72 -17zM136 107q0 -14 -0.5 -29.5t-1 -30t-1 -27.5t-1.5 -20h-44q3 32 4 72.5t1 81.5v602h45v-220 v-40.5t-0.5 -41.5t-1 -36.5t-1.5 -24.5h2q24 53 71 88.5t106 35.5q53 0 93 -20.5t67 -55.5t40.5 -81.5t13.5 -98.5q0 -58 -14 -107.5t-41.5 -86t-68.5 -57t-95 -20.5t-99.5 32t-71.5 85h-2z"/>
<glyph glyph-name="c" horiz-adv-x="454" unicode="c" d="M416 445q-49 26 -118 26q-44 0 -79.5 -16.5t-60.5 -45.5t-39 -69t-14 -86q0 -47 13.5 -87t38.5 -69t61 -45.5t82 -16.5q32 0 61 6.5t55 21.5l3 -44q-24 -11 -55.5 -18t-66.5 -7q-55 0 -99.5 18.5t-76 52.5t-48.5 81.5t-17 104.5q0 55 18 103t50 82.5t76.5 54.5t98.5 20 q34 0 65.5 -5.5t56.5 -16.5z"/>
<glyph glyph-name="d" horiz-adv-x="584" unicode="d" d="M274 478q-79 0 -124.5 -59.5t-45.5 -168.5q0 -45 11 -85t33 -70t53 -47.5t72 -17.5q36 0 67.5 15.5t55.5 44t37.5 69t13.5 91.5q0 50 -12 92t-34.5 72t-54.5 47t-72 17zM490 154q0 -41 1 -81.5t4 -72.5h-44q-2 23 -2.5 53t-0.5 54h-2q-23 -51 -68 -84t-104 -33 q-53 0 -94 20.5t-68.5 55t-41.5 81t-14 98.5q0 58 14 108t41.5 86.5t69 57t96.5 20.5q54 0 100 -30t69 -80h2q-2 17 -2.5 54t-0.5 75v220h45v-602z"/>
<glyph glyph-name="e" horiz-adv-x="527" unicode="e" d="M429 288q0 94 -38.5 142.5t-110.5 48.5t-119.5 -48.5t-55.5 -142.5h324zM103 249q0 -100 52.5 -159.5t147.5 -59.5q35 0 66.5 8t64.5 27l3 -45q-62 -30 -133 -30q-121 0 -184.5 71t-63.5 194q0 58 16.5 106.5t46.5 83t71 53.5t91 19q92 0 143 -60.5t51 -176.5 q0 -5 -0.5 -14t-1.5 -17h-370z"/>
<glyph glyph-name="f" horiz-adv-x="312" unicode="f" d="M302 714q-11 3 -23 5t-23 2q-25 0 -41.5 -9.5t-26 -25.5t-13.5 -37.5t-4 -45.5v-99h117v-39h-117v-465h-45v465h-107v39h107v98q0 34 7.5 63t23.5 50t40.5 33t58.5 12q24 0 51 -8z"/>
<glyph glyph-name="g" horiz-adv-x="576" unicode="g" d="M487 507v-477q0 -66 -17.5 -113.5t-48 -78t-73.5 -45.5t-94 -15q-45 0 -87.5 8.5t-76.5 24.5l5 48q35 -20 76.5 -30t80.5 -10q57 0 93.5 17.5t58 48t30 71.5t8.5 88v33.5t2 37.5h-2q-23 -50 -68.5 -82.5t-111.5 -32.5q-50 0 -89 18.5t-66 52.5t-41.5 80t-14.5 102 q0 57 15 105.5t43 84t68 55t89 19.5q36 0 63.5 -9.5t49 -25t37 -35t26.5 -40.5h2q-2 24 -2 52v48h45zM270 478q-40 0 -71.5 -16.5t-53.5 -46.5t-33.5 -71.5t-11.5 -90.5q0 -98 44 -155.5t122 -57.5q38 0 70.5 15.5t56 43t37 67t13.5 87.5t-11.5 89t-34 71.5t-54.5 47.5 t-73 17z"/>
<glyph glyph-name="h" horiz-adv-x="574" unicode="h" d="M138 400q26 54 71.5 85.5t108.5 31.5q50 0 82.5 -17t52 -47t27 -71t7.5 -89v-293h-45v281q0 104 -30 150.5t-103 46.5q-44 0 -80 -21.5t-60 -58.5q-9 -14 -15 -27t-9.5 -28t-5 -34t-1.5 -45v-264h-45v756h45v-196v-42.5t-0.5 -46t-1 -42t-0.5 -29.5h2z"/>
<glyph glyph-name="i" horiz-adv-x="231" unicode="i" d="M138 0h-45v507h45v-507zM144 698v-67h-57v67h57z"/>
<glyph glyph-name="j" horiz-adv-x="231" unicode="j" d="M144 698v-67h-57v67h57zM138 -59q0 -36 -5 -66t-18 -51.5t-36 -33.5t-59 -12q-21 0 -41 5l2 41q21 -6 40 -6q23 0 37.5 9t22 25t10 39t2.5 51v565h45v-566z"/>
<glyph glyph-name="k" horiz-adv-x="487" unicode="k" d="M199 208q-18 18 -33 34t-26 30h-2v-272h-45v756h45v-461h2q10 11 24.5 24t34.5 30l187 158h67l-274 -222l293 -285h-65z"/>
<glyph glyph-name="l" horiz-adv-x="231" unicode="l" d="M138 0h-45v756h45v-756z"/>
<glyph glyph-name="m" horiz-adv-x="868" unicode="m" d="M140 404q23 51 66.5 82t99.5 31q57 0 92 -34.5t46 -92.5q23 60 69 93.5t106 33.5q51 0 82.5 -18.5t49 -50t24 -73.5t6.5 -90v-285h-45v284q0 40 -4.5 75t-18.5 61.5t-39 42t-65 15.5q-33 0 -60.5 -14.5t-47.5 -39.5t-31 -59t-11 -73v-292h-45v281q0 99 -28 148t-91 49 q-40 0 -73.5 -22.5t-55.5 -59.5q-8 -14 -13.5 -27t-8.5 -28t-4.5 -34.5t-1.5 -45.5v-261h-45v353q0 41 -1 81.5t-4 72.5h45q1 -10 1.5 -23.5t1.5 -27.5t1.5 -28t0.5 -24h2z"/>
<glyph glyph-name="n" horiz-adv-x="574" unicode="n" d="M93 353q0 41 -1 81.5t-4 72.5h45q1 -10 1.5 -23.5t1.5 -27.5t1.5 -28t0.5 -24h2q26 54 70.5 83.5t107.5 29.5q50 0 82.5 -17t52 -47t27 -71t7.5 -89v-293h-45v281q0 104 -30 150.5t-103 46.5q-44 0 -80 -21.5t-60 -58.5q-9 -14 -15 -27t-9.5 -28t-5 -34t-1.5 -45v-264 h-45v353z"/>
<glyph glyph-name="o" horiz-adv-x="576" unicode="o" d="M287 478q-41 0 -74.5 -16t-57.5 -45.5t-37 -71.5t-13 -94q0 -50 13 -91t37 -70t58 -44.5t75 -15.5q42 0 76 16t58 45t37 71t13 93q0 103 -50 163t-135 60zM293 517q50 0 91.5 -19t71.5 -54t47 -83.5t17 -108.5q0 -59 -17 -107t-47.5 -82.5t-73.5 -53.5t-94 -19t-94 19 t-73.5 53.5t-47.5 83t-17 107.5t17 107.5t48.5 83.5t75 54t96.5 19z"/>
<glyph glyph-name="p" horiz-adv-x="584" unicode="p" d="M311 478q-39 0 -71.5 -16.5t-55.5 -46.5t-35.5 -72t-12.5 -93q0 -48 13 -88.5t36.5 -70t56 -45.5t70.5 -16t69 16t53 45t34 69.5t12 89.5q0 105 -45 166.5t-124 61.5zM136 110q2 -17 2 -54.5v-75.5v-190h-45v563q0 41 -1 81.5t-4 72.5h46q1 -8 1.5 -22.5t1 -30.5t1 -30.5 t0.5 -23.5h2q29 59 76.5 88t104.5 29q46 0 84.5 -19t65.5 -53.5t42 -83t15 -106.5q0 -60 -15 -108.5t-43 -83.5t-66.5 -54t-86.5 -19q-60 0 -107 31.5t-72 88.5h-2z"/>
<glyph glyph-name="q" horiz-adv-x="584" unicode="q" d="M447 109q-27 -55 -71.5 -87t-108.5 -32q-48 0 -86.5 19t-66.5 54t-43 83.5t-15 108.5q0 56 15.5 104t43 83t66 55t85.5 20q60 0 105.5 -26t72.5 -82h2q0 9 0.5 22t1.5 26.5t2 26.5t2 23h42q-2 -17 -2.5 -39t-0.5 -42v-636h-45v190q0 38 1 75.5t2 53.5h-2zM271 478 q-38 0 -68.5 -16.5t-52 -46t-33.5 -71.5t-12 -93q0 -50 12 -90.5t33.5 -69.5t52.5 -45t69 -16q39 0 71 16t55.5 45.5t36.5 69.5t13 88q0 106 -46.5 167.5t-130.5 61.5z"/>
<glyph glyph-name="r" horiz-adv-x="332" unicode="r" d="M93 353q0 41 -1 81.5t-4 72.5h44q1 -10 1.5 -24.5t1 -29.5t1 -29t0.5 -24h2q7 25 21 46t32.5 37t41.5 25t47 9q19 0 38 -4l-2 -41q-17 4 -37 4q-31 0 -57 -15.5t-44.5 -41.5t-29 -60.5t-10.5 -72.5v-286h-45v353z"/>
<glyph glyph-name="s" horiz-adv-x="404" unicode="s" d="M55 62q34 -17 64.5 -24.5t66.5 -7.5q23 0 45 5.5t39.5 17.5t28 31.5t10.5 46.5q0 22 -6.5 38t-20.5 29t-37 24.5t-57 23.5q-25 9 -48.5 20t-41.5 26.5t-28.5 37t-10.5 51.5q0 33 12.5 58t34.5 42.5t51 26.5t61 9q30 0 59.5 -4.5t55.5 -14.5l-5 -44q-29 14 -55.5 19 t-55.5 5q-23 0 -43.5 -6t-36 -18t-24.5 -30t-9 -41q0 -38 29 -60.5t90 -43.5q66 -23 99.5 -55.5t33.5 -86.5q0 -38 -15 -66t-39 -46t-54 -26.5t-61 -8.5q-38 0 -71 6.5t-68 19.5z"/>
<glyph glyph-name="t" horiz-adv-x="343" unicode="t" d="M168 634v-130h131v-39h-131v-322q0 -61 23 -86t63 -25q14 0 26 2t26 9l2 -39q-27 -10 -55 -10q-73 0 -101.5 39t-28.5 110v322h-104v39h104v115z"/>
<glyph glyph-name="u" horiz-adv-x="575" unicode="u" d="M482 154q0 -41 1 -81.5t4 -72.5h-44q-1 8 -1.5 21.5t-1 29t-1 30.5t-0.5 26h-2q-25 -56 -71 -86.5t-109 -30.5q-97 0 -143 76q-15 26 -21 58.5t-6 91.5v291h45v-284q0 -104 30.5 -149t103.5 -45q44 0 80 21.5t60 58.5q9 14 15 27t9.5 28t5 34t1.5 45v264h45v-353z"/>
<glyph glyph-name="v" horiz-adv-x="457" unicode="v" d="M192 153q4 -12 9 -27.5t10 -31.5t9.5 -32t7.5 -28h2q3 12 7.5 28t10 32.5t10.5 32t9 26.5l122 354h47l-182 -507h-53l-180 507h50z"/>
<glyph glyph-name="w" horiz-adv-x="805" unicode="w" d="M193 0l-170 507h50l115 -359q8 -25 17 -57t16 -57h2q7 25 16 57.5t17 55.5l118 360h56l118 -359q8 -23 18 -56t17 -58h2q7 25 16.5 57.5t17.5 55.5l116 360h47l-171 -507h-57l-129 392q-5 17 -11.5 38.5t-11.5 38.5h-2q-5 -17 -11 -38.5t-11 -38.5l-128 -392h-57z"/>
<glyph glyph-name="x" horiz-adv-x="466" unicode="x" d="M235 288q12 22 28.5 48.5t25.5 41.5l83 129h53l-164 -243l180 -264h-57l-92 140q-6 9 -14.5 22t-17 27t-16.5 27t-13 22q-6 -9 -14 -22.5t-16.5 -27t-16.5 -26.5t-14 -22l-91 -140h-54l179 264l-165 243h57l84 -129q10 -15 26.5 -41.5t28.5 -48.5z"/>
<glyph glyph-name="y" horiz-adv-x="457" unicode="y" d="M193 153l9 -27t10 -31.5t9.5 -32.5t7.5 -28h2q4 12 8.5 28t9.5 32.5t10 31.5l9 27l122 354h47l-205 -574q-11 -31 -23 -59t-28.5 -49.5t-40.5 -34t-58 -12.5q-11 0 -25 2t-27 6l6 41q10 -4 23 -6.5t24 -2.5q21 0 37 7.5t30 26.5t27.5 52t29.5 84l-186 519h50z"/>
<glyph glyph-name="z" horiz-adv-x="443" unicode="z" d="M406 465q-77 -104 -132 -179t-93 -125t-60.5 -79t-33.5 -42h320v-40h-370v40q87 118 145 196t94.5 126t55 71.5t27.5 33.5h-310v40h357v-42z"/>
<glyph glyph-name="braceleft" horiz-adv-x="310" unicode="{" d="M13 326q35 4 56 16t32.5 31.5t15 46t3.5 58.5v71q0 50 7 88t25.5 64t50.5 40.5t82 18.5v-39q-68 -5 -92.5 -41.5t-24.5 -105.5v-63q0 -47 -4 -80t-15 -56.5t-29.5 -38.5t-48.5 -25v-2q30 -11 48.5 -27t29.5 -40t15 -57t4 -78v-61q0 -70 28 -106t89 -41v-39 q-93 8 -129 58.5t-36 151.5v70q0 32 -3.5 58.5t-15 46.5t-32.5 32t-56 16v33z"/>
<glyph glyph-name="bar" horiz-adv-x="280" unicode="|" d="M116 786h48v-1000h-48v1000z"/>
<glyph glyph-name="braceright" horiz-adv-x="310" unicode="}" d="M297 293q-35 -4 -56 -16t-32.5 -31.5t-15 -46t-3.5 -58.5v-71q0 -50 -7 -87.5t-25.5 -63.5t-50.5 -40.5t-82 -18.5v39q68 5 92.5 41.5t24.5 105.5v62q0 46 4 80t15 57.5t29.5 38.5t48.5 25v2q-30 11 -48.5 27t-29.5 39.5t-15 56.5t-4 78v61q0 70 -28 106.5t-89 41.5v39 q93 -8 129 -59t36 -152v-70q0 -32 3.5 -58.5t15 -46.5t32.5 -32t56 -16v-33z"/>
<glyph glyph-name="asciitilde" d="M535 261q-24 -29 -60.5 -49t-73.5 -20q-41 0 -69 14.5t-52 31.5t-49 31.5t-62 14.5q-38 0 -74.5 -25t-59.5 -60v53q23 32 60 52t74 20q42 0 70 -14.5t52 -31.5t49 -31.5t61 -14.5q39 0 75 24t59 59v-54z" unicode="~"/>
<glyph glyph-name="uni00A0" horiz-adv-x="226" unicode=" "/>
<glyph glyph-name="exclamdown" horiz-adv-x="280" unicode="¡" d="M108 443v64h63v-64h-63zM112 -191l10 538h34l7 -538h-51z"/>
<glyph glyph-name="cent" d="M155 254q0 -61 21 -108.5t62 -76.5l123 402h-13q-44 0 -79.5 -16.5t-60.5 -45.5t-39 -69t-14 -86zM448 638l-41 -131q34 -4 64 -17l-5 -45q-17 8 -34 14t-37 9l-129 -415q37 -17 84 -17q32 0 61 6.5t55 21.5l3 -44q-24 -11 -55.5 -18t-66.5 -7q-53 0 -94 16l-44 -141h-33 l48 155q-56 31 -87 90t-31 137q0 55 18 103t50 82.5t76.5 54.5t98.5 20h12t13 -1l39 127h35z" unicode="¢"/>
<glyph glyph-name="sterling" d="M71 43h100v307h-89v35h89v55q0 64 16.5 113.5t47 84t73 52.5t94.5 18q34 0 56 -3.5t48 -11.5l-7 -43q-23 9 -46 14t-50 5q-50 0 -84.5 -17t-57 -48.5t-32.5 -76t-10 -99.5v-43h175v-35h-175v-307h284v-43h-432v43z" unicode="£"/>
<glyph glyph-name="currency" d="M285 227q51 0 84.5 34.5t33.5 88.5t-33.5 88.5t-84.5 34.5t-84.5 -34.5t-33.5 -88.5t33.5 -88.5t84.5 -34.5zM285 513q24 0 50 -8t52 -29l107 109l29 -29l-108 -110q17 -26 24.5 -50t7.5 -46t-7.5 -46t-24.5 -50l108 -110l-29 -29l-107 109q-26 -21 -52 -29t-50 -8t-50 8 t-52 29l-107 -109l-29 29l108 110q-17 26 -24.5 50t-7.5 46t7.5 46t24.5 50l-108 110l29 29l107 -109q26 21 52 29t50 8z" unicode="¤"/>
<glyph glyph-name="yen" d="M195 526q10 -18 23 -43l26 -50t24.5 -47.5t18.5 -36.5h2q6 14 17.5 36.5t24.5 48t26 50t22 42.5l91 172h50l-204 -371h145v-34h-155v-73h155v-34h-155v-186h-40v186h-154v34h154v73h-154v34h144l-206 371h53z" unicode="¥"/>
<glyph glyph-name="brokenbar" horiz-adv-x="280" unicode="¦" d="M116 165h48v-379h-48v379zM116 786h48v-379h-48v379z"/>
<glyph glyph-name="section" d="M438 286q0 48 -36.5 78t-108.5 58l-62 24q-39 -11 -65 -42t-26 -75q0 -26 8.5 -43t25.5 -30.5t42.5 -25.5t59.5 -27l71 -31q38 11 64.5 38.5t26.5 75.5zM118 -33q37 -17 73.5 -26.5t77.5 -9.5q25 0 48.5 6.5t41.5 19.5t28.5 33t10.5 48q0 23 -8.5 40.5t-27.5 32.5 t-49 29.5t-73 32.5q-27 11 -53 23.5t-46.5 30.5t-33.5 42t-13 58q0 51 28 86t73 55q-23 17 -37 40.5t-14 56.5q0 32 13 58.5t36 45t54 29t68 10.5t71.5 -6t62.5 -15l-6 -44q-32 14 -65.5 20t-65.5 6q-25 0 -47.5 -7.5t-39 -20.5t-26.5 -32t-10 -41t9 -38.5t27 -29.5 t44 -24.5t59 -23.5q70 -26 113.5 -63t43.5 -97q0 -53 -28.5 -89t-70.5 -55q29 -20 43.5 -45t14.5 -59q0 -39 -14.5 -68t-39 -48t-56 -28.5t-64.5 -9.5q-81 0 -160 31z" unicode="§"/>
<glyph glyph-name="dieresis" horiz-adv-x="500" unicode="¨" d="M363 698v-67h-57v67h57zM195 698v-67h-57v67h57z"/>
<glyph glyph-name="copyright" horiz-adv-x="900" unicode="©" d="M450 663q-66 0 -123 -25t-99 -67.5t-66 -99.5t-24 -121q0 -65 24 -122.5t66 -100t99 -67.5t123 -25t123 25t99 68t66 100.5t24 123.5q0 63 -24 119.5t-66 99t-99 67.5t-123 25zM450 699q73 0 136.5 -27t111 -74t75 -111t27.5 -137t-27.5 -137t-75 -111.5t-111 -75 t-136.5 -27.5t-136.5 27.5t-111 75t-75 112t-27.5 138.5q0 73 27.5 136t75 110t111 74t136.5 27zM556 501q-15 7 -34.5 11t-43.5 4q-35 0 -64.5 -12t-50.5 -33t-33 -50.5t-12 -64.5q0 -38 12.5 -68t34.5 -51.5t52 -33t65 -11.5q21 0 40 3.5t38 11.5l3 -38q-34 -13 -81 -13 q-46 0 -84.5 14t-66 40.5t-43 63.5t-15.5 83q0 43 15.5 79t43 61.5t65 40t81.5 14.5q50 0 82 -13z"/>
<glyph glyph-name="ordfeminine" horiz-adv-x="405" unicode="ª" d="M301 383q-18 -38 -55.5 -61.5t-77.5 -23.5q-58 0 -93.5 29.5t-35.5 81.5q0 33 14.5 57.5t40.5 40.5t62 24t80 8q12 0 27.5 -1t34.5 -3q0 56 -23.5 89t-85.5 33q-26 0 -53 -7.5t-51 -21.5l-4 42q21 11 48.5 18t62.5 7q75 0 112 -39t37 -107q0 -17 -0.5 -38t-1.5 -39.5 t-1.5 -33.5t-0.5 -20v-9q0 -26 0.5 -51.5t3.5 -53.5h-38q-1 7 -1.5 16.5t-0.5 14.5v17.5t2 30.5h-2zM298 500q-17 2 -32 3t-29 1q-31 0 -58.5 -4.5t-48 -15.5t-32.5 -29t-12 -44q0 -35 23 -55.5t61 -20.5q27 0 50.5 9.5t40.5 29.5t27 51t10 75z"/>
<glyph glyph-name="guillemotleft" horiz-adv-x="474" unicode="«" d="M370 447h45l-137 -197l137 -199h-45l-142 199zM200 447h45l-137 -197l137 -199h-45l-142 199z"/>
<glyph glyph-name="logicalnot" d="M35 353v40h480v-271h-39v231h-441z" unicode="¬"/>
<glyph glyph-name="uni00AD" horiz-adv-x="325" unicode="­" d="M280 250h-235v37h235v-37z"/>
<glyph glyph-name="registered" horiz-adv-x="500" unicode="®" d="M248 665q-30 0 -56 -12t-46 -32.5t-31.5 -47t-11.5 -56.5q0 -31 11.5 -58t31.5 -47.5t47 -32.5t57 -12t57 12t47 32.5t31.5 48t11.5 58.5q0 30 -12 56.5t-32 47t-47 32t-58 11.5zM254 692q35 0 66.5 -14t55 -38t37 -55.5t13.5 -67.5q0 -37 -13.5 -69.5t-37.5 -56.5 t-56 -37.5t-68 -13.5q-37 0 -69.5 14t-56.5 38t-37.5 56.5t-13.5 69.5q0 36 14 68t38 55.5t57 37t71 13.5zM219 535h12q52 0 52 29q0 19 -13.5 24t-38.5 5h-12v-58zM189 618h49q35 0 57 -10t22 -39q0 -19 -13 -31.5t-40 -14.5v-2q17 -5 24 -14.5t14 -23.5l29 -59h-34l-27 57 q-7 14 -15.5 21.5t-28.5 7.5h-7v-86h-30v194z"/>
<glyph glyph-name="macron" horiz-adv-x="500" unicode="¯" d="M123 683h254v-38h-254v38z"/>
<glyph glyph-name="degree" horiz-adv-x="400" unicode="°" d="M199 707q-23 0 -43 -9t-35 -24t-23.5 -35.5t-8.5 -42.5q0 -23 9 -43.5t24 -35.5t35.5 -24t43.5 -9t43 9t35 24t24 35.5t9 43.5t-9 43.5t-24.5 35.5t-36 23.5t-43.5 8.5zM203 737q28 0 53.5 -11t44.5 -30.5t30 -45t11 -54.5q0 -30 -11 -55.5t-30 -45t-45 -30.5t-55 -11 q-30 0 -55.5 11t-45 30.5t-30.5 45.5t-11 56q0 29 11 54.5t30.5 44.5t46 30t56.5 11z"/>
<glyph glyph-name="plusminus" d="M266 316h-231v40h231v184h42v-184h227v-40h-227v-186h-42v186zM35 6v40h500v-40h-500z" unicode="±"/>
<glyph glyph-name="uni00B2" horiz-adv-x="380" unicode="²" d="M68 828q26 12 53 18.5t57 6.5q28 0 52 -7t42 -20.5t28.5 -35t10.5 -49.5q0 -47 -30.5 -94.5t-93.5 -106.5q-28 -26 -51.5 -45.5t-43.5 -33.5v-1q29 1 65.5 1.5t64.5 0.5h98v-34h-269v38q56 46 96.5 84t67 71t39 62t12.5 57q0 42 -27 61t-64 19q-24 0 -49 -6.5t-51 -20.5z "/>
<glyph glyph-name="uni00B3" horiz-adv-x="380" unicode="³" d="M130 630h-10.5t-13.5 -1v34q7 -1 13 -1h11q66 0 102.5 19.5t36.5 62.5q0 20 -8.5 34.5t-23 23.5t-33 13.5t-38.5 4.5q-25 0 -48 -4.5t-52 -16.5l-3 36q26 10 52.5 14t54.5 4q63 0 101.5 -27t38.5 -80q0 -46 -33 -70.5t-81 -27.5v-2q25 -1 46 -8t37 -19.5t25 -31.5t9 -44 q0 -57 -45 -89.5t-117 -32.5q-51 0 -105 17l4 37q27 -12 52.5 -16.5t48.5 -4.5q24 0 45.5 5t38 16.5t26.5 29t10 41.5q0 44 -35.5 64t-105.5 20z"/>
<glyph glyph-name="acute" horiz-adv-x="500" unicode="´" d="M246 579h-43l101 177h54z"/>
<glyph glyph-name="uni00B5" horiz-adv-x="610" unicode="µ" d="M492 119q0 -30 1.5 -47.5t5.5 -27t11.5 -12.5t18.5 -3q6 0 10.5 1t7.5 2l2 -33q-5 -2 -13.5 -3.5t-16.5 -1.5q-40 0 -53.5 27t-13.5 90h-2q-10 -27 -28.5 -49.5t-42.5 -38t-52.5 -24.5t-59.5 -9q-43 0 -74 16.5t-48 43.5q-1 1 -3 -1q1 -10 1.5 -26.5t1.5 -36t1.5 -40.5 t0.5 -40v-113h-46v714h45v-273q0 -39 3.5 -76t17 -65.5t39.5 -46t72 -17.5q39 0 70 17t53 44t34 60t12 64v293h45v-388z"/>
<glyph glyph-name="paragraph" horiz-adv-x="600" unicode="¶" d="M477 655v-855h-45v855h-120v-855h-48v466q-45 3 -83 19t-66 43t-43.5 64t-15.5 83q0 51 16.5 92.5t48 70.5t76.5 44.5t102 15.5h239v-43h-61z"/>
<glyph glyph-name="periodcentered" horiz-adv-x="230" unicode="·" d="M146 236h-63v66h63v-66z"/>
<glyph glyph-name="cedilla" horiz-adv-x="500" unicode="¸" d="M216 -69q12 3 23 3q41 0 63.5 -20.5t22.5 -52.5q0 -44 -31 -67.5t-74 -23.5q-26 0 -49 5l4 28q8 -2 18 -3t21 -1q12 0 25 2.5t23.5 9.5t17 18.5t6.5 28.5q0 25 -18 37.5t-47 12.5q-16 0 -36 -5l15 106h31z"/>
<glyph glyph-name="uni00B9" horiz-adv-x="380" unicode="¹" d="M231 428h-41v263v29.5t0.5 32.5t1 29.5t0.5 21.5h-1q-10 -9 -24.5 -21t-27.5 -23l-25 -20l-23 26l103 81h37v-419z"/>
<glyph glyph-name="ordmasculine" horiz-adv-x="445" unicode="º" d="M225 695q39 0 70.5 -15t54 -42t35 -64t12.5 -80q0 -42 -12.5 -77.5t-35 -62t-55 -41.5t-72.5 -15q-39 0 -71.5 14.5t-56.5 40.5t-37 61t-13 76q0 44 13 81.5t37 65t57 43t74 15.5zM222 656q-61 0 -97.5 -45t-36.5 -121q0 -69 36.5 -111.5t99.5 -42.5q29 0 53 12t41.5 33 t27 50t9.5 64t-9.5 64.5t-27 51t-42 33.5t-54.5 12z"/>
<glyph glyph-name="guillemotright" horiz-adv-x="474" unicode="»" d="M104 51h-45l137 199l-137 197h45l142 -197zM274 51h-45l137 199l-137 197h45l142 -197z"/>
<glyph glyph-name="onequarter" horiz-adv-x="900" unicode="¼" d="M231 281h-41v263v29.5t0.5 32.5t1 29.5t0.5 21.5h-1q-10 -9 -24.5 -21t-27.5 -23l-25 -20l-23 26l103 81h37v-419zM276 -22h-41l398 764h42zM765 265q0 28 0.5 61.5t2.5 68.5h-1q-9 -17 -26.5 -44.5t-33.5 -50.5l-115 -167h173v132zM806 133h61v-33h-61v-100h-41v100 h-215v35l198 284h58v-286z"/>
<glyph glyph-name="onehalf" horiz-adv-x="900" unicode="½" d="M231 281h-41v263v29.5t0.5 32.5t1 29.5t0.5 21.5h-1q-10 -9 -24.5 -21t-27.5 -23l-25 -20l-23 26l103 81h37v-419zM276 -22h-41l398 764h42zM588 400q26 12 53 18.5t57 6.5q28 0 52 -7t42 -20.5t28.5 -35t10.5 -49.5q0 -47 -30.5 -94.5t-93.5 -106.5q-28 -26 -51.5 -45.5 t-43.5 -33.5v-1q29 1 65.5 1.5t64.5 0.5h98v-34h-269v38q56 46 96.5 84t67 71t39 62t12.5 57q0 42 -27 61t-64 19q-24 0 -49 -6.5t-51 -20.5z"/>
<glyph glyph-name="threequarters" horiz-adv-x="900" unicode="¾" d="M130 483h-10.5t-13.5 -1v34q7 -1 13 -1h11q66 0 102.5 19.5t36.5 62.5q0 20 -8.5 34.5t-23 23.5t-33 13.5t-38.5 4.5q-25 0 -48 -4.5t-52 -16.5l-3 36q26 10 52.5 14t54.5 4q63 0 101.5 -27t38.5 -80q0 -46 -33 -70.5t-81 -27.5v-2q25 -1 46 -8t37 -19.5t25 -31.5t9 -44 q0 -57 -45 -89.5t-117 -32.5q-51 0 -105 17l4 37q27 -12 52.5 -16.5t48.5 -4.5q24 0 45.5 5t38 16.5t26.5 29t10 41.5q0 44 -35.5 64t-105.5 20zM276 -22h-41l398 764h42zM765 265q0 28 0.5 61.5t2.5 68.5h-1q-9 -17 -26.5 -44.5t-33.5 -50.5l-115 -167h173v132zM806 133h61 v-33h-61v-100h-41v100h-215v35l198 284h58v-286z"/>
<glyph glyph-name="questiondown" horiz-adv-x="466" unicode="¿" d="M222 443v64h63v-64h-63zM385 -175q-27 -11 -61.5 -16.5t-65.5 -5.5q-44 0 -81 9.5t-64 29.5t-42.5 50t-15.5 71q0 25 6 48t19.5 48t36 54.5t55.5 66.5q34 38 47 68.5t13 68.5v30h44v-22q0 -26 -3.5 -46.5t-11.5 -40t-21.5 -39.5t-33.5 -44q-29 -34 -49 -60t-32 -47.5 t-17 -41t-5 -39.5q0 -32 12 -55t33.5 -38t51 -22t63.5 -7q26 0 56.5 5.5t62.5 19.5z"/>
<glyph glyph-name="Agrave" horiz-adv-x="660" unicode="À" d="M303 698h53l289 -698h-53l-81 199h-365l-80 -199h-51zM386 508q-5 13 -12.5 32t-15.5 40t-15.5 41t-12.5 36h-3q-5 -16 -12.5 -36l-15 -40t-15 -39t-13.5 -33l-108 -269h331zM212 889h55l91 -139h-44z"/>
<glyph glyph-name="Aacute" horiz-adv-x="660" unicode="Á" d="M303 698h53l289 -698h-53l-81 199h-365l-80 -199h-51zM386 508q-5 13 -12.5 32t-15.5 40t-15.5 41t-12.5 36h-3q-5 -16 -12.5 -36l-15 -40t-15 -39t-13.5 -33l-108 -269h331zM352 750h-44l91 139h55z"/>
<glyph glyph-name="Acircumflex" horiz-adv-x="660" unicode="Â" d="M303 698h53l289 -698h-53l-81 199h-365l-80 -199h-51zM386 508q-5 13 -12.5 32t-15.5 40t-15.5 41t-12.5 36h-3q-5 -16 -12.5 -36l-15 -40t-15 -39t-13.5 -33l-108 -269h331zM359 895l108 -144h-45l-90 110l-95 -110h-44l112 144h54z"/>
<glyph glyph-name="Atilde" horiz-adv-x="660" unicode="Ã" d="M303 698h53l289 -698h-53l-81 199h-365l-80 -199h-51zM386 508q-5 13 -12.5 32t-15.5 40t-15.5 41t-12.5 36h-3q-5 -16 -12.5 -36l-15 -40t-15 -39t-13.5 -33l-108 -269h331zM469 860q-4 -39 -22.5 -63t-50.5 -24q-16 0 -32.5 4.5t-40.5 19.5q-20 12 -33 17.5t-27 5.5 q-15 0 -27 -11t-15 -37h-31q4 38 23 61t54 23q17 0 31.5 -5.5t37.5 -19.5q22 -13 34.5 -17.5t26.5 -4.5q20 0 29.5 15.5t12.5 35.5h30z"/>
<glyph glyph-name="Adieresis" horiz-adv-x="660" unicode="Ä" d="M303 698h53l289 -698h-53l-81 199h-365l-80 -199h-51zM386 508q-5 13 -12.5 32t-15.5 40t-15.5 41t-12.5 36h-3q-5 -16 -12.5 -36l-15 -40t-15 -39t-13.5 -33l-108 -269h331zM442 852v-67h-57v67h57zM274 852v-67h-57v67h57z"/>
<glyph glyph-name="Aring" horiz-adv-x="660" unicode="Å" d="M303 698h53l289 -698h-53l-81 199h-365l-80 -199h-51zM386 508q-5 13 -12.5 32t-15.5 40t-15.5 41t-12.5 36h-3q-5 -16 -12.5 -36l-15 -40t-15 -39t-13.5 -33l-108 -269h331zM330 905q-28 0 -46.5 -20t-18.5 -46q0 -28 17.5 -47.5t47.5 -19.5q26 0 45.5 20t19.5 50 q0 26 -19.5 44.5t-45.5 18.5zM330 937q20 0 38 -8t32 -21t22 -31t8 -37q0 -42 -29 -70.5t-71 -28.5q-44 0 -72 28.5t-28 70.5t28 69.5t72 27.5z"/>
<glyph glyph-name="AE" horiz-adv-x="879" unicode="Æ" d="M474 472q-1 17 -2.5 43t-3 53t-3 51.5t-1.5 39.5h-2q-8 -16 -22 -40.5t-30 -51t-31 -52t-26 -43.5l-144 -236h279zM820 0h-317l-13 194h-305l-119 -194h-54l428 698h368v-42h-299l15 -273h268v-41h-264l16 -299h276v-43z"/>
<glyph glyph-name="Ccedilla" horiz-adv-x="613" unicode="Ç" d="M562 639q-27 11 -64 16.5t-75 5.5q-69 0 -126 -23.5t-98 -65.5t-63.5 -99.5t-22.5 -126.5t23 -126t65 -97.5t102 -62.5t135 -22q30 0 61.5 4t60.5 15l4 -48q-29 -8 -62 -11.5t-68 -3.5q-8 0 -15.5 0.5t-15.5 0.5l-12 -64q12 3 23 3q41 0 63.5 -20.5t22.5 -52.5 q0 -44 -31 -67.5t-74 -23.5q-26 0 -49 5l4 28q8 -2 18 -3t21 -1q12 0 25 2.5t23.5 9.5t17 18.5t6.5 28.5q0 25 -18 37.5t-47 12.5q-16 0 -36 -5l13 95q-71 9 -129 37.5t-98.5 74t-62.5 105.5t-22 132q0 79 26.5 144.5t74.5 113t116 73.5t151 26q38 0 74 -4.5t65 -14.5z"/>
<glyph glyph-name="Egrave" horiz-adv-x="501" unicode="È" d="M417 383v-42h-270v-298h295v-43h-343v698h333v-42h-285v-273h270zM149 889h55l91 -139h-44z"/>
<glyph glyph-name="Eacute" horiz-adv-x="501" unicode="É" d="M417 383v-42h-270v-298h295v-43h-343v698h333v-42h-285v-273h270zM273 750h-44l91 139h55z"/>
<glyph glyph-name="Ecircumflex" horiz-adv-x="501" unicode="Ê" d="M417 383v-42h-270v-298h295v-43h-343v698h333v-42h-285v-273h270zM290 895l108 -144h-45l-90 110l-95 -110h-44l112 144h54z"/>
<glyph glyph-name="Edieresis" horiz-adv-x="501" unicode="Ë" d="M417 383v-42h-270v-298h295v-43h-343v698h333v-42h-285v-273h270zM378 852v-67h-57v67h57zM210 852v-67h-57v67h57z"/>
<glyph glyph-name="Igrave" horiz-adv-x="246" unicode="Ì" d="M147 0h-48v698h48v-698zM8 889h55l91 -139h-44z"/>
<glyph glyph-name="Iacute" horiz-adv-x="246" unicode="Í" d="M147 0h-48v698h48v-698zM141 750h-44l91 139h55z"/>
<glyph glyph-name="Icircumflex" horiz-adv-x="246" unicode="Î" d="M147 0h-48v698h48v-698zM154 895l108 -144h-45l-90 110l-95 -110h-44l112 144h54z"/>
<glyph glyph-name="Idieresis" horiz-adv-x="246" unicode="Ï" d="M147 0h-48v698h48v-698zM239 852v-67h-57v67h57zM71 852v-67h-57v67h57z"/>
<glyph glyph-name="Eth" horiz-adv-x="691" unicode="Ð" d="M147 370h145v-34h-145v-293h88q162 0 253.5 75.5t91.5 227.5q0 83 -25.5 142t-71 96.5t-109 54.5t-139.5 17h-88v-286zM99 336h-68v34h68v328h136q87 0 160 -20.5t125 -63.5t81 -108.5t29 -155.5q0 -96 -32 -162.5t-86.5 -108.5t-126 -60.5t-150.5 -18.5h-136v336z"/>
<glyph glyph-name="Ntilde" horiz-adv-x="695" unicode="Ñ" d="M548 698h48v-698h-62l-275 452q-12 19 -28 46.5t-32.5 55.5t-31 54t-23.5 44h-2q1 -16 2 -40.5t1.5 -51.5t1 -54.5t0.5 -49.5v-456h-48v698h65l271 -442q11 -18 28 -46.5t34 -58.5t32 -57.5t23 -43.5h2q-1 18 -2 47.5t-2 62t-1.5 64t-0.5 54.5v420zM484 860 q-4 -39 -22.5 -63t-50.5 -24q-16 0 -32.5 4.5t-40.5 19.5q-20 12 -33 17.5t-27 5.5q-15 0 -27 -11t-15 -37h-31q4 38 23 61t54 23q17 0 31.5 -5.5t37.5 -19.5q22 -13 34.5 -17.5t26.5 -4.5q20 0 29.5 15.5t12.5 35.5h30z"/>
<glyph glyph-name="Ograve" horiz-adv-x="737" unicode="Ò" d="M366 664q-56 0 -102 -22.5t-79 -63.5t-51 -99.5t-18 -130.5t18.5 -130.5t52 -99.5t81 -63t106.5 -22q56 0 101.5 22t78 63t50 98.5t17.5 129.5q0 74 -17.5 133t-50.5 100t-80 63t-107 22zM374 708q69 0 124 -26.5t94 -74.5t60 -115.5t21 -148.5q0 -80 -21.5 -145 t-61 -111.5t-94.5 -71.5t-122 -25q-71 0 -128 25t-97.5 71t-62.5 111t-22 145q0 84 22 151.5t62.5 115t97.5 73.5t128 26zM252 889h55l91 -139h-44z"/>
<glyph glyph-name="Oacute" horiz-adv-x="737" unicode="Ó" d="M366 664q-56 0 -102 -22.5t-79 -63.5t-51 -99.5t-18 -130.5t18.5 -130.5t52 -99.5t81 -63t106.5 -22q56 0 101.5 22t78 63t50 98.5t17.5 129.5q0 74 -17.5 133t-50.5 100t-80 63t-107 22zM374 708q69 0 124 -26.5t94 -74.5t60 -115.5t21 -148.5q0 -80 -21.5 -145 t-61 -111.5t-94.5 -71.5t-122 -25q-71 0 -128 25t-97.5 71t-62.5 111t-22 145q0 84 22 151.5t62.5 115t97.5 73.5t128 26zM379 750h-44l91 139h55z"/>
<glyph glyph-name="Ocircumflex" horiz-adv-x="737" unicode="Ô" d="M366 664q-56 0 -102 -22.5t-79 -63.5t-51 -99.5t-18 -130.5t18.5 -130.5t52 -99.5t81 -63t106.5 -22q56 0 101.5 22t78 63t50 98.5t17.5 129.5q0 74 -17.5 133t-50.5 100t-80 63t-107 22zM374 708q69 0 124 -26.5t94 -74.5t60 -115.5t21 -148.5q0 -80 -21.5 -145 t-61 -111.5t-94.5 -71.5t-122 -25q-71 0 -128 25t-97.5 71t-62.5 111t-22 145q0 84 22 151.5t62.5 115t97.5 73.5t128 26zM400 895l108 -144h-45l-90 110l-95 -110h-44l112 144h54z"/>
<glyph glyph-name="Otilde" horiz-adv-x="737" unicode="Õ" d="M366 664q-56 0 -102 -22.5t-79 -63.5t-51 -99.5t-18 -130.5t18.5 -130.5t52 -99.5t81 -63t106.5 -22q56 0 101.5 22t78 63t50 98.5t17.5 129.5q0 74 -17.5 133t-50.5 100t-80 63t-107 22zM374 708q69 0 124 -26.5t94 -74.5t60 -115.5t21 -148.5q0 -80 -21.5 -145 t-61 -111.5t-94.5 -71.5t-122 -25q-71 0 -128 25t-97.5 71t-62.5 111t-22 145q0 84 22 151.5t62.5 115t97.5 73.5t128 26zM506 860q-4 -39 -22.5 -63t-50.5 -24q-16 0 -32.5 4.5t-40.5 19.5q-20 12 -33 17.5t-27 5.5q-15 0 -27 -11t-15 -37h-31q4 38 23 61t54 23 q17 0 31.5 -5.5t37.5 -19.5q22 -13 34.5 -17.5t26.5 -4.5q20 0 29.5 15.5t12.5 35.5h30z"/>
<glyph glyph-name="Odieresis" horiz-adv-x="737" unicode="Ö" d="M366 664q-56 0 -102 -22.5t-79 -63.5t-51 -99.5t-18 -130.5t18.5 -130.5t52 -99.5t81 -63t106.5 -22q56 0 101.5 22t78 63t50 98.5t17.5 129.5q0 74 -17.5 133t-50.5 100t-80 63t-107 22zM374 708q69 0 124 -26.5t94 -74.5t60 -115.5t21 -148.5q0 -80 -21.5 -145 t-61 -111.5t-94.5 -71.5t-122 -25q-71 0 -128 25t-97.5 71t-62.5 111t-22 145q0 84 22 151.5t62.5 115t97.5 73.5t128 26zM482 852v-67h-57v67h57zM314 852v-67h-57v67h57z"/>
<glyph glyph-name="multiply" d="M315 247l213 -213l-28 -28l-213 213l-213 -213l-28 28l213 213l-213 213l28 28l213 -213l213 213l28 -28z" unicode="×"/>
<glyph glyph-name="Oslash" horiz-adv-x="737" unicode="Ø" d="M366 664q-56 0 -102 -22.5t-79 -63.5t-51 -99.5t-18 -130.5q0 -67 15.5 -121.5t44.5 -94.5l346 479q-31 26 -70 39.5t-86 13.5zM621 346q0 77 -19 137t-54 102l-348 -482q33 -34 76.5 -52t97.5 -18q56 0 101.5 22t78 63t50 98.5t17.5 129.5zM374 708q52 0 96 -15.5 t79 -43.5l60 82l30 -20l-63 -87q47 -48 72 -119.5t25 -161.5q0 -80 -21.5 -145t-61 -111.5t-94.5 -71.5t-122 -25q-62 0 -113 19t-90 54l-60 -84l-31 21l65 89q-39 46 -60 110t-21 143q0 84 22 151.5t62.5 115t97.5 73.5t128 26z"/>
<glyph glyph-name="Ugrave" horiz-adv-x="668" unicode="Ù" d="M582 698v-437q0 -126 -61.5 -198.5t-190.5 -72.5q-124 0 -184 71.5t-60 199.5v437h48v-421q0 -54 9 -98.5t32 -77t61 -50.5t97 -18t98 18t62 50.5t32 78t9 100.5v418h48zM217 889h55l91 -139h-44z"/>
<glyph glyph-name="Uacute" horiz-adv-x="668" unicode="Ú" d="M582 698v-437q0 -126 -61.5 -198.5t-190.5 -72.5q-124 0 -184 71.5t-60 199.5v437h48v-421q0 -54 9 -98.5t32 -77t61 -50.5t97 -18t98 18t62 50.5t32 78t9 100.5v418h48zM349 750h-44l91 139h55z"/>
<glyph glyph-name="Ucircumflex" horiz-adv-x="668" unicode="Û" d="M582 698v-437q0 -126 -61.5 -198.5t-190.5 -72.5q-124 0 -184 71.5t-60 199.5v437h48v-421q0 -54 9 -98.5t32 -77t61 -50.5t97 -18t98 18t62 50.5t32 78t9 100.5v418h48zM365 895l108 -144h-45l-90 110l-95 -110h-44l112 144h54z"/>
<glyph glyph-name="Udieresis" horiz-adv-x="668" unicode="Ü" d="M582 698v-437q0 -126 -61.5 -198.5t-190.5 -72.5q-124 0 -184 71.5t-60 199.5v437h48v-421q0 -54 9 -98.5t32 -77t61 -50.5t97 -18t98 18t62 50.5t32 78t9 100.5v418h48zM448 852v-67h-57v67h57zM280 852v-67h-57v67h57z"/>
<glyph glyph-name="Yacute" horiz-adv-x="594" unicode="Ý" d="M71 698l115 -183q14 -22 30 -47.5t31.5 -50t28.5 -46t21 -34.5h2q8 13 21 34.5t28 46t31.5 50t30.5 47.5l116 183h58l-264 -401v-297h-48v295l-262 403h61zM318 750h-44l91 139h55z"/>
<glyph glyph-name="Thorn" horiz-adv-x="560" unicode="Þ" d="M147 246h83q109 0 168.5 34t59.5 113t-58 111t-172 32h-81v-290zM99 698h48v-121h91q57 0 106 -8.5t85 -29.5t56 -56.5t20 -88.5q0 -54 -20.5 -90t-56 -58t-84.5 -31t-106 -9h-91v-206h-48v698z"/>
<glyph glyph-name="germandbls" horiz-adv-x="597" unicode="ß" d="M93 492q0 55 12 104t39 85.5t70 57.5t104 21q40 0 74.5 -12t60 -35t39.5 -57.5t14 -79.5q0 -29 -9 -58t-27.5 -53.5t-46 -42.5t-63.5 -25v-2q38 -4 71 -19t57.5 -40t38.5 -59.5t14 -78.5q0 -47 -16 -85.5t-45 -65.5t-69 -42t-88 -15q-26 0 -51 3t-54 11l3 43 q25 -9 51.5 -13t49.5 -4q33 0 63.5 10t54 30.5t37 51.5t13.5 73q0 173 -214 173h-20v46h16q45 0 79.5 13t58 35t36 51.5t12.5 62.5q0 69 -38.5 108t-101.5 39q-48 0 -82 -17.5t-56 -49t-32 -74.5t-10 -94v-488h-45v492z"/>
<glyph glyph-name="agrave" horiz-adv-x="520" unicode="à" d="M392 261q-14 2 -29.5 3t-34.5 1q-108 0 -168.5 -30t-60.5 -97q0 -48 35 -77.5t90 -29.5q49 0 90.5 24.5t61.5 70.5q10 23 13 58t3 77zM391 97q-8 -21 -24.5 -40t-39 -33t-50 -22.5t-58.5 -8.5q-37 0 -68 10.5t-53 29.5t-34.5 45.5t-12.5 59.5q0 82 70 122.5t202 40.5 q17 0 36 -0.5t33 -2.5v22q0 33 -6.5 61.5t-22.5 50.5t-42.5 34.5t-66.5 12.5q-35 0 -73.5 -11.5t-75.5 -37.5l-3 45q35 21 77.5 31.5t79.5 10.5q94 0 135 -52.5t41 -142.5q0 -24 -0.5 -50t-1.5 -49.5t-1.5 -43t-0.5 -32.5q0 -42 2 -81t4 -66h-44q-1 6 -1.5 18.5t-0.5 23.5 q0 10 0.5 27t1.5 28h-2zM136 756h54l101 -177h-43z"/>
<glyph glyph-name="aacute" horiz-adv-x="520" unicode="á" d="M392 261q-14 2 -29.5 3t-34.5 1q-108 0 -168.5 -30t-60.5 -97q0 -48 35 -77.5t90 -29.5q49 0 90.5 24.5t61.5 70.5q10 23 13 58t3 77zM391 97q-8 -21 -24.5 -40t-39 -33t-50 -22.5t-58.5 -8.5q-37 0 -68 10.5t-53 29.5t-34.5 45.5t-12.5 59.5q0 82 70 122.5t202 40.5 q17 0 36 -0.5t33 -2.5v22q0 33 -6.5 61.5t-22.5 50.5t-42.5 34.5t-66.5 12.5q-35 0 -73.5 -11.5t-75.5 -37.5l-3 45q35 21 77.5 31.5t79.5 10.5q94 0 135 -52.5t41 -142.5q0 -24 -0.5 -50t-1.5 -49.5t-1.5 -43t-0.5 -32.5q0 -42 2 -81t4 -66h-44q-1 6 -1.5 18.5t-0.5 23.5 q0 10 0.5 27t1.5 28h-2zM284 579h-43l101 177h54z"/>
<glyph glyph-name="acircumflex" horiz-adv-x="520" unicode="â" d="M392 261q-14 2 -29.5 3t-34.5 1q-108 0 -168.5 -30t-60.5 -97q0 -48 35 -77.5t90 -29.5q49 0 90.5 24.5t61.5 70.5q10 23 13 58t3 77zM391 97q-8 -21 -24.5 -40t-39 -33t-50 -22.5t-58.5 -8.5q-37 0 -68 10.5t-53 29.5t-34.5 45.5t-12.5 59.5q0 82 70 122.5t202 40.5 q17 0 36 -0.5t33 -2.5v22q0 33 -6.5 61.5t-22.5 50.5t-42.5 34.5t-66.5 12.5q-35 0 -73.5 -11.5t-75.5 -37.5l-3 45q35 21 77.5 31.5t79.5 10.5q94 0 135 -52.5t41 -142.5q0 -24 -0.5 -50t-1.5 -49.5t-1.5 -43t-0.5 -32.5q0 -42 2 -81t4 -66h-44q-1 6 -1.5 18.5t-0.5 23.5 q0 10 0.5 27t1.5 28h-2zM291 756l110 -177h-45l-92 143l-95 -143h-44l112 177h54z"/>
<glyph glyph-name="atilde" horiz-adv-x="520" unicode="ã" d="M392 261q-14 2 -29.5 3t-34.5 1q-108 0 -168.5 -30t-60.5 -97q0 -48 35 -77.5t90 -29.5q49 0 90.5 24.5t61.5 70.5q10 23 13 58t3 77zM391 97q-8 -21 -24.5 -40t-39 -33t-50 -22.5t-58.5 -8.5q-37 0 -68 10.5t-53 29.5t-34.5 45.5t-12.5 59.5q0 82 70 122.5t202 40.5 q17 0 36 -0.5t33 -2.5v22q0 33 -6.5 61.5t-22.5 50.5t-42.5 34.5t-66.5 12.5q-35 0 -73.5 -11.5t-75.5 -37.5l-3 45q35 21 77.5 31.5t79.5 10.5q94 0 135 -52.5t41 -142.5q0 -24 -0.5 -50t-1.5 -49.5t-1.5 -43t-0.5 -32.5q0 -42 2 -81t4 -66h-44q-1 6 -1.5 18.5t-0.5 23.5 q0 10 0.5 27t1.5 28h-2zM408 699q-4 -39 -22.5 -63t-50.5 -24q-16 0 -32.5 4.5t-40.5 19.5q-20 12 -33 17.5t-27 5.5q-15 0 -27 -11t-15 -37h-31q4 38 23 61t54 23q17 0 31.5 -5.5t37.5 -19.5q22 -13 34.5 -17.5t26.5 -4.5q20 0 29.5 15.5t12.5 35.5h30z"/>
<glyph glyph-name="adieresis" horiz-adv-x="520" unicode="ä" d="M392 261q-14 2 -29.5 3t-34.5 1q-108 0 -168.5 -30t-60.5 -97q0 -48 35 -77.5t90 -29.5q49 0 90.5 24.5t61.5 70.5q10 23 13 58t3 77zM391 97q-8 -21 -24.5 -40t-39 -33t-50 -22.5t-58.5 -8.5q-37 0 -68 10.5t-53 29.5t-34.5 45.5t-12.5 59.5q0 82 70 122.5t202 40.5 q17 0 36 -0.5t33 -2.5v22q0 33 -6.5 61.5t-22.5 50.5t-42.5 34.5t-66.5 12.5q-35 0 -73.5 -11.5t-75.5 -37.5l-3 45q35 21 77.5 31.5t79.5 10.5q94 0 135 -52.5t41 -142.5q0 -24 -0.5 -50t-1.5 -49.5t-1.5 -43t-0.5 -32.5q0 -42 2 -81t4 -66h-44q-1 6 -1.5 18.5t-0.5 23.5 q0 10 0.5 27t1.5 28h-2zM383 698v-67h-57v67h57zM215 698v-67h-57v67h57z"/>
<glyph glyph-name="aring" horiz-adv-x="520" unicode="å" d="M392 261q-14 2 -29.5 3t-34.5 1q-108 0 -168.5 -30t-60.5 -97q0 -48 35 -77.5t90 -29.5q49 0 90.5 24.5t61.5 70.5q10 23 13 58t3 77zM391 97q-8 -21 -24.5 -40t-39 -33t-50 -22.5t-58.5 -8.5q-37 0 -68 10.5t-53 29.5t-34.5 45.5t-12.5 59.5q0 82 70 122.5t202 40.5 q17 0 36 -0.5t33 -2.5v22q0 33 -6.5 61.5t-22.5 50.5t-42.5 34.5t-66.5 12.5q-35 0 -73.5 -11.5t-75.5 -37.5l-3 45q35 21 77.5 31.5t79.5 10.5q94 0 135 -52.5t41 -142.5q0 -24 -0.5 -50t-1.5 -49.5t-1.5 -43t-0.5 -32.5q0 -42 2 -81t4 -66h-44q-1 6 -1.5 18.5t-0.5 23.5 q0 10 0.5 27t1.5 28h-2zM262 734q-28 0 -46.5 -20t-18.5 -46q0 -28 17.5 -47.5t47.5 -19.5q26 0 45.5 20t19.5 50q0 26 -19.5 44.5t-45.5 18.5zM262 766q20 0 38 -8t32 -21t22 -31t8 -37q0 -42 -29 -70.5t-71 -28.5q-44 0 -72 28.5t-28 70.5t28 69.5t72 27.5z"/>
<glyph glyph-name="ae" horiz-adv-x="839" unicode="æ" d="M740 286q0 94 -37.5 143.5t-109.5 49.5q-70 0 -115.5 -49.5t-53.5 -143.5h316zM384 251q-21 2 -36 3t-26 1q-111 0 -167 -29.5t-56 -93.5q0 -47 33 -75.5t86 -28.5q51 0 91.5 25.5t58.5 72.5q9 23 12.5 53t3.5 72zM624 29q35 0 66.5 8.5t64.5 27.5l3 -45 q-62 -30 -133 -30q-90 0 -143.5 40t-73.5 105h-2q-6 -30 -22.5 -56.5t-41.5 -46t-58 -31t-71 -11.5q-36 0 -66 10t-51 28.5t-33 44.5t-12 59q0 82 67 120.5t205 38.5q11 0 29 -0.5t32 -2.5v32q0 33 -6.5 61.5t-22 50.5t-41 34.5t-62.5 12.5q-35 0 -72.5 -11.5t-74.5 -37.5 l-3 45q35 21 76.5 31.5t78.5 10.5q72 0 108 -33t50 -87q22 56 69.5 88t109.5 32q92 0 142.5 -61t50.5 -177q0 -5 -0.5 -14t-1.5 -17h-361q0 -100 52.5 -159.5t147.5 -59.5z"/>
<glyph glyph-name="ccedilla" horiz-adv-x="454" unicode="ç" d="M416 445q-49 26 -118 26q-44 0 -79.5 -16.5t-60.5 -45.5t-39 -69t-14 -86q0 -47 13.5 -87t38.5 -69t61 -45.5t82 -16.5q32 0 61 6.5t55 21.5l3 -44q-24 -11 -55.5 -18t-66.5 -7h-7l-12 -64q12 3 23 3q41 0 63.5 -20.5t22.5 -52.5q0 -44 -31 -67.5t-74 -23.5q-26 0 -49 5 l4 28q8 -2 18 -3t21 -1q12 0 25 2.5t23.5 9.5t17 18.5t6.5 28.5q0 25 -18 37.5t-47 12.5q-16 0 -36 -5l13 94q-47 6 -84.5 27t-64 54t-41 77t-14.5 97q0 55 18 103t50 82.5t76.5 54.5t98.5 20q34 0 65.5 -5.5t56.5 -16.5z"/>
<glyph glyph-name="egrave" horiz-adv-x="527" unicode="è" d="M429 288q0 94 -38.5 142.5t-110.5 48.5t-119.5 -48.5t-55.5 -142.5h324zM103 249q0 -100 52.5 -159.5t147.5 -59.5q35 0 66.5 8t64.5 27l3 -45q-62 -30 -133 -30q-121 0 -184.5 71t-63.5 194q0 58 16.5 106.5t46.5 83t71 53.5t91 19q92 0 143 -60.5t51 -176.5 q0 -5 -0.5 -14t-1.5 -17h-370zM156 756h54l101 -177h-43z"/>
<glyph glyph-name="eacute" horiz-adv-x="527" unicode="é" d="M429 288q0 94 -38.5 142.5t-110.5 48.5t-119.5 -48.5t-55.5 -142.5h324zM103 249q0 -100 52.5 -159.5t147.5 -59.5q35 0 66.5 8t64.5 27l3 -45q-62 -30 -133 -30q-121 0 -184.5 71t-63.5 194q0 58 16.5 106.5t46.5 83t71 53.5t91 19q92 0 143 -60.5t51 -176.5 q0 -5 -0.5 -14t-1.5 -17h-370zM292 579h-43l101 177h54z"/>
<glyph glyph-name="ecircumflex" horiz-adv-x="527" unicode="ê" d="M429 288q0 94 -38.5 142.5t-110.5 48.5t-119.5 -48.5t-55.5 -142.5h324zM103 249q0 -100 52.5 -159.5t147.5 -59.5q35 0 66.5 8t64.5 27l3 -45q-62 -30 -133 -30q-121 0 -184.5 71t-63.5 194q0 58 16.5 106.5t46.5 83t71 53.5t91 19q92 0 143 -60.5t51 -176.5 q0 -5 -0.5 -14t-1.5 -17h-370zM305 756l110 -177h-45l-92 143l-95 -143h-44l112 177h54z"/>
<glyph glyph-name="edieresis" horiz-adv-x="527" unicode="ë" d="M429 288q0 94 -38.5 142.5t-110.5 48.5t-119.5 -48.5t-55.5 -142.5h324zM103 249q0 -100 52.5 -159.5t147.5 -59.5q35 0 66.5 8t64.5 27l3 -45q-62 -30 -133 -30q-121 0 -184.5 71t-63.5 194q0 58 16.5 106.5t46.5 83t71 53.5t91 19q92 0 143 -60.5t51 -176.5 q0 -5 -0.5 -14t-1.5 -17h-370zM390 698v-67h-57v67h57zM222 698v-67h-57v67h57z"/>
<glyph glyph-name="igrave" horiz-adv-x="231" unicode="ì" d="M138 0h-45v507h45v-507zM-13 756h54l101 -177h-43z"/>
<glyph glyph-name="iacute" horiz-adv-x="231" unicode="í" d="M138 0h-45v507h45v-507zM137 579h-43l101 177h54z"/>
<glyph glyph-name="icircumflex" horiz-adv-x="231" unicode="î" d="M138 0h-45v507h45v-507zM146 756l110 -177h-45l-92 143l-95 -143h-44l112 177h54z"/>
<glyph glyph-name="idieresis" horiz-adv-x="231" unicode="ï" d="M138 0h-45v507h45v-507zM230 698v-67h-57v67h57zM62 698v-67h-57v67h57z"/>
<glyph glyph-name="eth" horiz-adv-x="574" unicode="ð" d="M518 252q0 -59 -17 -107t-47.5 -82.5t-73 -53.5t-93.5 -19t-93.5 18t-73 51.5t-47.5 81t-17 106.5t16.5 107t46.5 82t73 52.5t96 18.5q48 0 90 -18.5t69 -51.5h2q-6 26 -21 56t-35.5 59.5t-45.5 55.5t-51 43l-127 -80l-23 28l122 74q-25 15 -55 28t-61 21l28 33 q37 -13 65 -26t60 -34l91 58l22 -27l-82 -52q48 -38 82 -86t56.5 -102.5t33 -114t10.5 -119.5zM286 468q-83 0 -133 -59.5t-50 -163.5q0 -101 50.5 -158t133.5 -57q42 0 76 16t58 45t37.5 71t13.5 93t-14.5 91t-40 67t-59 41t-72.5 14z"/>
<glyph glyph-name="ntilde" horiz-adv-x="574" unicode="ñ" d="M93 353q0 41 -1 81.5t-4 72.5h45q1 -10 1.5 -23.5t1.5 -27.5t1.5 -28t0.5 -24h2q26 54 70.5 83.5t107.5 29.5q50 0 82.5 -17t52 -47t27 -71t7.5 -89v-293h-45v281q0 104 -30 150.5t-103 46.5q-44 0 -80 -21.5t-60 -58.5q-9 -14 -15 -27t-9.5 -28t-5 -34t-1.5 -45v-264 h-45v353zM432 699q-4 -39 -22.5 -63t-50.5 -24q-16 0 -32.5 4.5t-40.5 19.5q-20 12 -33 17.5t-27 5.5q-15 0 -27 -11t-15 -37h-31q4 38 23 61t54 23q17 0 31.5 -5.5t37.5 -19.5q22 -13 34.5 -17.5t26.5 -4.5q20 0 29.5 15.5t12.5 35.5h30z"/>
<glyph glyph-name="ograve" horiz-adv-x="576" unicode="ò" d="M287 478q-41 0 -74.5 -16t-57.5 -45.5t-37 -71.5t-13 -94q0 -50 13 -91t37 -70t58 -44.5t75 -15.5q42 0 76 16t58 45t37 71t13 93q0 103 -50 163t-135 60zM293 517q50 0 91.5 -19t71.5 -54t47 -83.5t17 -108.5q0 -59 -17 -107t-47.5 -82.5t-73.5 -53.5t-94 -19t-94 19 t-73.5 53.5t-47.5 83t-17 107.5t17 107.5t48.5 83.5t75 54t96.5 19zM162 756h54l101 -177h-43z"/>
<glyph glyph-name="oacute" horiz-adv-x="576" unicode="ó" d="M287 478q-41 0 -74.5 -16t-57.5 -45.5t-37 -71.5t-13 -94q0 -50 13 -91t37 -70t58 -44.5t75 -15.5q42 0 76 16t58 45t37 71t13 93q0 103 -50 163t-135 60zM293 517q50 0 91.5 -19t71.5 -54t47 -83.5t17 -108.5q0 -59 -17 -107t-47.5 -82.5t-73.5 -53.5t-94 -19t-94 19 t-73.5 53.5t-47.5 83t-17 107.5t17 107.5t48.5 83.5t75 54t96.5 19zM296 579h-43l101 177h54z"/>
<glyph glyph-name="ocircumflex" horiz-adv-x="576" unicode="ô" d="M287 478q-41 0 -74.5 -16t-57.5 -45.5t-37 -71.5t-13 -94q0 -50 13 -91t37 -70t58 -44.5t75 -15.5q42 0 76 16t58 45t37 71t13 93q0 103 -50 163t-135 60zM293 517q50 0 91.5 -19t71.5 -54t47 -83.5t17 -108.5q0 -59 -17 -107t-47.5 -82.5t-73.5 -53.5t-94 -19t-94 19 t-73.5 53.5t-47.5 83t-17 107.5t17 107.5t48.5 83.5t75 54t96.5 19zM313 756l110 -177h-45l-92 143l-95 -143h-44l112 177h54z"/>
<glyph glyph-name="otilde" horiz-adv-x="576" unicode="õ" d="M287 478q-41 0 -74.5 -16t-57.5 -45.5t-37 -71.5t-13 -94q0 -50 13 -91t37 -70t58 -44.5t75 -15.5q42 0 76 16t58 45t37 71t13 93q0 103 -50 163t-135 60zM293 517q50 0 91.5 -19t71.5 -54t47 -83.5t17 -108.5q0 -59 -17 -107t-47.5 -82.5t-73.5 -53.5t-94 -19t-94 19 t-73.5 53.5t-47.5 83t-17 107.5t17 107.5t48.5 83.5t75 54t96.5 19zM426 699q-4 -39 -22.5 -63t-50.5 -24q-16 0 -32.5 4.5t-40.5 19.5q-20 12 -33 17.5t-27 5.5q-15 0 -27 -11t-15 -37h-31q4 38 23 61t54 23q17 0 31.5 -5.5t37.5 -19.5q22 -13 34.5 -17.5t26.5 -4.5 q20 0 29.5 15.5t12.5 35.5h30z"/>
<glyph glyph-name="odieresis" horiz-adv-x="576" unicode="ö" d="M287 478q-41 0 -74.5 -16t-57.5 -45.5t-37 -71.5t-13 -94q0 -50 13 -91t37 -70t58 -44.5t75 -15.5q42 0 76 16t58 45t37 71t13 93q0 103 -50 163t-135 60zM293 517q50 0 91.5 -19t71.5 -54t47 -83.5t17 -108.5q0 -59 -17 -107t-47.5 -82.5t-73.5 -53.5t-94 -19t-94 19 t-73.5 53.5t-47.5 83t-17 107.5t17 107.5t48.5 83.5t75 54t96.5 19zM399 698v-67h-57v67h57zM231 698v-67h-57v67h57z"/>
<glyph glyph-name="divide" d="M322 420h-63v66h63v-66zM322 25h-63v66h63v-66zM35 238v40h500v-40h-500z" unicode="÷"/>
<glyph glyph-name="oslash" horiz-adv-x="576" unicode="ø" d="M287 478q-41 0 -74.5 -16t-57.5 -45.5t-37 -71.5t-13 -94q0 -92 42 -151l251 341q-46 37 -111 37zM472 255q0 104 -51 163l-251 -344q47 -44 118 -44q42 0 76 16t58 45t37 71t13 93zM293 517q74 0 130 -42l41 56l25 -20l-42 -57q35 -35 54 -86.5t19 -115.5 q0 -59 -17 -107t-47.5 -82.5t-73.5 -53.5t-94 -19q-42 0 -78.5 13t-65.5 36l-44 -60l-26 21l46 63q-31 35 -47.5 83t-16.5 107t17 107.5t48.5 83.5t75 54t96.5 19z"/>
<glyph glyph-name="ugrave" horiz-adv-x="575" unicode="ù" d="M482 154q0 -41 1 -81.5t4 -72.5h-44q-1 8 -1.5 21.5t-1 29t-1 30.5t-0.5 26h-2q-25 -56 -71 -86.5t-109 -30.5q-97 0 -143 76q-15 26 -21 58.5t-6 91.5v291h45v-284q0 -104 30.5 -149t103.5 -45q44 0 80 21.5t60 58.5q9 14 15 27t9.5 28t5 34t1.5 45v264h45v-353z M157 756h54l101 -177h-43z"/>
<glyph glyph-name="uacute" horiz-adv-x="575" unicode="ú" d="M482 154q0 -41 1 -81.5t4 -72.5h-44q-1 8 -1.5 21.5t-1 29t-1 30.5t-0.5 26h-2q-25 -56 -71 -86.5t-109 -30.5q-97 0 -143 76q-15 26 -21 58.5t-6 91.5v291h45v-284q0 -104 30.5 -149t103.5 -45q44 0 80 21.5t60 58.5q9 14 15 27t9.5 28t5 34t1.5 45v264h45v-353z M305 579h-43l101 177h54z"/>
<glyph glyph-name="ucircumflex" horiz-adv-x="575" unicode="û" d="M482 154q0 -41 1 -81.5t4 -72.5h-44q-1 8 -1.5 21.5t-1 29t-1 30.5t-0.5 26h-2q-25 -56 -71 -86.5t-109 -30.5q-97 0 -143 76q-15 26 -21 58.5t-6 91.5v291h45v-284q0 -104 30.5 -149t103.5 -45q44 0 80 21.5t60 58.5q9 14 15 27t9.5 28t5 34t1.5 45v264h45v-353z M310 756l110 -177h-45l-92 143l-95 -143h-44l112 177h54z"/>
<glyph glyph-name="udieresis" horiz-adv-x="575" unicode="ü" d="M482 154q0 -41 1 -81.5t4 -72.5h-44q-1 8 -1.5 21.5t-1 29t-1 30.5t-0.5 26h-2q-25 -56 -71 -86.5t-109 -30.5q-97 0 -143 76q-15 26 -21 58.5t-6 91.5v291h45v-284q0 -104 30.5 -149t103.5 -45q44 0 80 21.5t60 58.5q9 14 15 27t9.5 28t5 34t1.5 45v264h45v-353z M398 698v-67h-57v67h57zM230 698v-67h-57v67h57z"/>
<glyph glyph-name="yacute" horiz-adv-x="457" unicode="ý" d="M193 153l9 -27t10 -31.5t9.5 -32.5t7.5 -28h2q4 12 8.5 28t9.5 32.5t10 31.5l9 27l122 354h47l-205 -574q-11 -31 -23 -59t-28.5 -49.5t-40.5 -34t-58 -12.5q-11 0 -25 2t-27 6l6 41q10 -4 23 -6.5t24 -2.5q21 0 37 7.5t30 26.5t27.5 52t29.5 84l-186 519h50zM241 579 h-43l101 177h54z"/>
<glyph glyph-name="thorn" horiz-adv-x="584" unicode="þ" d="M137 393q27 61 75 92.5t109 31.5q46 0 84.5 -19t65.5 -53.5t42 -83t15 -106.5q0 -60 -15 -108.5t-43 -83t-66.5 -53t-86.5 -18.5q-60 0 -107 30.5t-72 87.5h-2q2 -17 2 -54.5v-75.5v-190h-45v966h45v-220v-40.5t-0.5 -41.5t-1 -36.5t-1.5 -24.5h2zM311 478 q-39 0 -71.5 -16.5t-55.5 -46.5t-35.5 -72t-12.5 -93q0 -48 13 -88.5t36.5 -70t56 -45.5t70.5 -16t69 16t53 45t34 69.5t12 89.5q0 105 -45 166.5t-124 61.5z"/>
<glyph glyph-name="dotlessi" horiz-adv-x="231" unicode="ı" d="M138 0h-45v507h45v-507z"/>
<glyph glyph-name="OE" horiz-adv-x="911" unicode="Œ" d="M509 655q-17 2 -36.5 2.5t-33.5 0.5q-75 0 -134.5 -21t-101.5 -61t-64.5 -96.5t-22.5 -128.5q0 -149 87.5 -230.5t249.5 -81.5q11 0 24.5 0.5t31.5 3.5v612zM827 383v-42h-270v-298h295v-43h-272q-35 0 -66.5 -2t-70.5 -2q-87 0 -157 23t-119.5 68t-76 111t-26.5 153 q0 80 27 144.5t76.5 110t118.5 70t154 25.5q15 0 33 -0.5t36.5 -1t36 -1t32.5 -0.5h264v-42h-285v-273h270z"/>
<glyph glyph-name="oe" horiz-adv-x="934" unicode="œ" d="M721 -10q-82 0 -142.5 37.5t-84.5 106.5q-26 -69 -79.5 -106.5t-127.5 -37.5q-51 0 -93.5 19t-73 53.5t-47.5 83t-17 107.5t17.5 107.5t49 83.5t75 54t96.5 19q71 0 123 -37.5t77 -105.5q23 66 74.5 104.5t121.5 38.5q92 0 142.5 -62t50.5 -178q0 -5 -0.5 -14t-1.5 -17 h-361q0 -100 52.5 -158.5t147.5 -58.5q35 0 66.5 8.5t64.5 27.5l3 -45q-62 -30 -133 -30zM836 285q0 94 -37.5 143.5t-109.5 49.5q-74 0 -116.5 -49.5t-50.5 -143.5h314zM286 478q-41 0 -75 -16t-58 -45.5t-37 -71.5t-13 -94q0 -50 13.5 -91t37.5 -70t58 -44.5t75 -15.5 q42 0 76 16t58 45t37.5 71t13.5 93t-13 92.5t-37.5 70.5t-59 44.5t-76.5 15.5z"/>
<glyph glyph-name="Scaron" horiz-adv-x="514" unicode="Š" d="M414 637q-59 28 -134 28q-33 0 -62 -8.5t-50.5 -25.5t-34 -41.5t-12.5 -55.5q0 -27 9 -47.5t28.5 -39t50 -36.5t72.5 -39q44 -22 76 -43t52.5 -43.5t30.5 -49t10 -58.5q0 -43 -16 -78t-45.5 -59.5t-70 -37.5t-88.5 -13q-42 0 -84 7.5t-75 20.5l5 52q39 -20 76.5 -28.5 t78.5 -8.5q38 0 69.5 10t53.5 28.5t34 44t12 57.5q0 25 -7.5 45.5t-25 40t-47.5 38.5t-75 41q-42 20 -74.5 39.5t-54.5 42t-33.5 50.5t-11.5 64q0 37 15 69t42 55.5t65.5 36.5t86.5 13q38 0 73.5 -6.5t65.5 -17.5zM244 750l-108 144h45l90 -110l95 110h44l-112 -144h-54z "/>
<glyph glyph-name="scaron" horiz-adv-x="404" unicode="š" d="M55 62q34 -17 64.5 -24.5t66.5 -7.5q23 0 45 5.5t39.5 17.5t28 31.5t10.5 46.5q0 22 -6.5 38t-20.5 29t-37 24.5t-57 23.5q-25 9 -48.5 20t-41.5 26.5t-28.5 37t-10.5 51.5q0 33 12.5 58t34.5 42.5t51 26.5t61 9q30 0 59.5 -4.5t55.5 -14.5l-5 -44q-29 14 -55.5 19 t-55.5 5q-23 0 -43.5 -6t-36 -18t-24.5 -30t-9 -41q0 -38 29 -60.5t90 -43.5q66 -23 99.5 -55.5t33.5 -86.5q0 -38 -15 -66t-39 -46t-54 -26.5t-61 -8.5q-38 0 -71 6.5t-68 19.5zM180 578l-111 177h45l93 -143l94 143h44l-112 -177h-53z"/>
<glyph glyph-name="Ydieresis" horiz-adv-x="594" unicode="Ÿ" d="M71 698l115 -183q14 -22 30 -47.5t31.5 -50t28.5 -46t21 -34.5h2q8 13 21 34.5t28 46t31.5 50t30.5 47.5l116 183h58l-264 -401v-297h-48v295l-262 403h61zM410 852v-67h-57v67h57zM242 852v-67h-57v67h57z"/>
<glyph glyph-name="circumflex" horiz-adv-x="500" unicode="ˆ" d="M278 756l110 -177h-45l-92 143l-95 -143h-44l112 177h54z"/>
<glyph glyph-name="caron" horiz-adv-x="500" unicode="ˇ" d="M223 578l-111 177h45l93 -143l94 143h44l-112 -177h-53z"/>
<glyph glyph-name="ring" horiz-adv-x="500" unicode="˚" d="M250 734q-28 0 -46.5 -20t-18.5 -46q0 -28 17.5 -47.5t47.5 -19.5q26 0 45.5 20t19.5 50q0 26 -19.5 44.5t-45.5 18.5zM250 766q20 0 38 -8t32 -21t22 -31t8 -37q0 -42 -29 -70.5t-71 -28.5q-44 0 -72 28.5t-28 70.5t28 69.5t72 27.5z"/>
<glyph glyph-name="tilde" horiz-adv-x="500" unicode="˜" d="M389 699q-4 -39 -22.5 -63t-50.5 -24q-16 0 -32.5 4.5t-40.5 19.5q-20 12 -33 17.5t-27 5.5q-15 0 -27 -11t-15 -37h-31q4 38 23 61t54 23q17 0 31.5 -5.5t37.5 -19.5q22 -13 34.5 -17.5t26.5 -4.5q20 0 29.5 15.5t12.5 35.5h30z"/>
<glyph glyph-name="endash" horiz-adv-x="500" unicode="–" d="M500 253h-500v31h500v-31z"/>
<glyph glyph-name="emdash" horiz-adv-x="1000" unicode="—" d="M880 253h-760v31h760v-31z"/>
<glyph glyph-name="quoteleft" horiz-adv-x="275" unicode="‘" d="M193 734l-63 -232h-48l73 232h38z"/>
<glyph glyph-name="quotesinglbase" horiz-adv-x="275" unicode="‚" d="M82 -126l63 230h48l-73 -230h-38z"/>
<glyph glyph-name="quotedblleft" horiz-adv-x="422" unicode="“" d="M340 734l-63 -231h-48l73 231h38zM193 734l-63 -231h-48l73 231h38z"/>
<glyph glyph-name="quotedblright" horiz-adv-x="422" unicode="”" d="M82 503l63 231h48l-73 -231h-38zM229 503l63 231h48l-73 -231h-38z"/>
<glyph glyph-name="dagger" d="M88 515h172v183h45v-183h177v-39h-177v-476h-45v476h-172v39z" unicode="†"/>
<glyph glyph-name="daggerdbl" d="M88 215h172v261h-172v39h172v183h45v-183h177v-39h-177v-261h177v-38h-177v-177h-45v177h-172v38z" unicode="‡"/>
<glyph glyph-name="ellipsis" horiz-adv-x="1000" unicode="…" d="M865 0h-63v66h63v-66zM531 0h-63v66h63v-66zM197 0h-63v66h63v-66z"/>
<glyph glyph-name="perthousand" horiz-adv-x="1373" unicode="‰" d="M1125 328q-54 0 -84 -40.5t-30 -111.5q0 -69 30 -109t83 -40t84 41t31 113t-29.5 109.5t-84.5 37.5zM1129 366q72 0 113.5 -50t41.5 -135q0 -88 -43 -139.5t-117 -51.5q-72 0 -115.5 50t-43.5 135q0 88 44 139.5t120 51.5zM726 328q-54 0 -84 -40.5t-30 -111.5 q0 -69 30 -109t83 -40t84 41t31 113t-29.5 109.5t-84.5 37.5zM730 366q72 0 113.5 -50t41.5 -135q0 -88 -43 -139.5t-117 -51.5q-72 0 -115.5 50t-43.5 135q0 88 44 139.5t120 51.5zM306 -22h-41l397 757h42zM247 670q-53 0 -83 -40t-30 -112q0 -69 30 -108.5t83 -39.5 t84 41t31 113t-29 109t-86 37zM252 709q72 0 114 -50t42 -136q0 -88 -42.5 -139t-117.5 -51q-74 0 -116.5 49.5t-42.5 135.5q0 88 43.5 139.5t119.5 51.5z"/>
<glyph glyph-name="guilsinglleft" horiz-adv-x="304" unicode="‹" d="M200 447h45l-137 -197l137 -199h-45l-142 199z"/>
<glyph glyph-name="guilsinglright" horiz-adv-x="304" unicode="›" d="M104 51h-45l137 199l-137 197h45l142 -197z"/>
<glyph glyph-name="fraction" horiz-adv-x="140" unicode="⁄" d="M-104 -22h-41l398 764h42z"/>
<glyph glyph-name="Euro" d="M515 651q-14 4 -36.5 6.5t-49.5 2.5q-55 0 -100 -16.5t-79.5 -47t-57 -73.5t-32.5 -95h311l-7 -36h-309q-1 -8 -1 -20.5v-20.5v-17t1 -16h296l-7 -36h-284q7 -56 30 -101.5t59 -77t83.5 -48.5t104.5 -17q23 0 42.5 2t39.5 7l5 -45q-20 -5 -40 -6.5t-43 -1.5 q-63 0 -118.5 17.5t-99.5 53.5t-73.5 90t-39.5 127h-84l6 36h75q-1 7 -1 16v17v20.5t1 20.5h-81l6 36h80q9 64 38 115t71.5 87t96 55t113.5 19q23 0 46 -1.5t45 -6.5z" unicode="€"/>
<glyph glyph-name="trademark" horiz-adv-x="900" unicode="™" d="M452 682h69l105 -289h3l103 289h68v-350h-42v304h-3l-110 -304h-39l-109 304h-3v-304h-42v350zM223 643h-124v39h288v-39h-120v-311h-44v311z"/>
<glyph glyph-name="glyph225" d="M250 905q-28 0 -46.5 -20t-18.5 -46q0 -28 17.5 -47.5t47.5 -19.5q26 0 45.5 20t19.5 50q0 26 -19.5 44.5t-45.5 18.5zM250 937q20 0 38 -8t32 -21t22 -31t8 -37q0 -42 -29 -70.5t-71 -28.5q-44 0 -72 28.5t-28 70.5t28 69.5t72 27.5z" horiz-adv-x="500"/>
<glyph glyph-name="glyph226" d="M152 889h55l91 -139h-44z" horiz-adv-x="500"/>
<glyph glyph-name="glyph227" d="M246 750h-44l91 139h55z" horiz-adv-x="500"/>
<glyph glyph-name="glyph228" d="M363 852v-67h-57v67h57zM195 852v-67h-57v67h57z" horiz-adv-x="500"/>
<glyph glyph-name="glyph229" d="M231 0h-41v263v29.5t0.5 32.5t1 29.5t0.5 21.5h-1q-10 -9 -24.5 -21t-27.5 -23l-25 -20l-23 26l103 81h37v-419z" horiz-adv-x="380"/>
<glyph glyph-name="glyph230" d="M68 400q26 12 53 18.5t57 6.5q28 0 52 -7t42 -20.5t28.5 -35t10.5 -49.5q0 -47 -30.5 -94.5t-93.5 -106.5q-28 -26 -51.5 -45.5t-43.5 -33.5v-1q29 1 65.5 1.5t64.5 0.5h98v-34h-269v38q56 46 96.5 84t67 71t39 62t12.5 57q0 42 -27 61t-64 19q-24 0 -49 -6.5t-51 -20.5z " horiz-adv-x="380"/>
<glyph glyph-name="glyph231" d="M130 202h-10.5t-13.5 -1v34q7 -1 13 -1h11q66 0 102.5 19.5t36.5 62.5q0 20 -8.5 34.5t-23 23.5t-33 13.5t-38.5 4.5q-25 0 -48 -4.5t-52 -16.5l-3 36q26 10 52.5 14t54.5 4q63 0 101.5 -27t38.5 -80q0 -46 -33 -70.5t-81 -27.5v-2q25 -1 46 -8t37 -19.5t25 -31.5t9 -44 q0 -57 -45 -89.5t-117 -32.5q-51 0 -105 17l4 37q27 -12 52.5 -16.5t48.5 -4.5q24 0 45.5 5t38 16.5t26.5 29t10 41.5q0 44 -35.5 64t-105.5 20z" horiz-adv-x="380"/>
<glyph glyph-name="glyph232" d="M245 265q0 28 0.5 61.5t2.5 68.5h-1q-9 -17 -26.5 -44.5t-33.5 -50.5l-115 -167h173v132zM286 133h61v-33h-61v-100h-41v100h-215v35l198 284h58v-286z" horiz-adv-x="380"/>
<glyph glyph-name="glyph233" d="M389 860q-4 -39 -22.5 -63t-50.5 -24q-16 0 -32.5 4.5t-40.5 19.5q-20 12 -33 17.5t-27 5.5q-15 0 -27 -11t-15 -37h-31q4 38 23 61t54 23q17 0 31.5 -5.5t37.5 -19.5q22 -13 34.5 -17.5t26.5 -4.5q20 0 29.5 15.5t12.5 35.5h30z" horiz-adv-x="500"/>
<glyph glyph-name="glyph234" d="M279 895l108 -144h-45l-90 110l-95 -110h-44l112 144h54z" horiz-adv-x="500"/>
<glyph glyph-name="glyph235" d="M221 750l-108 144h45l90 -110l95 110h44l-112 -144h-54z" horiz-adv-x="500"/>
</font>
</defs>
</svg>
